<?xml version="1.0" encoding="UTF-8"?>
<svg width="594px" height="372px" viewBox="0 0 594 372" version="1.1" xmlns="http://www.w3.org/2000/svg" xmlns:xlink="http://www.w3.org/1999/xlink">
    <title>Group 161</title>
    <defs>
        <polygon id="path-1" points="0 0 591 0 591 32 0 32"></polygon>
        <polygon id="path-3" points="0 372 594 372 594 0 0 0"></polygon>
    </defs>
    <g id="Page-1" stroke="none" stroke-width="1" fill="none" fill-rule="evenodd">
        <g id="Option-5_V2" transform="translate(-526, -193)">
            <g id="Group-161" transform="translate(526, 193)">
                <g id="Group-3" transform="translate(0, 340)">
                    <mask id="mask-2" fill="white">
                        <use xlink:href="#path-1"></use>
                    </mask>
                    <g id="Clip-2"></g>
                    <path d="M591,16 C591,24.836671 458.700182,32 295.499968,32 C132.299754,32 -6.37669388e-05,24.836671 -6.37669388e-05,16 C-6.37669388e-05,7.16332898 132.299754,0 295.499968,0 C458.700182,0 591,7.16332898 591,16" id="Fill-1" fill="#D3E5F0" mask="url(#mask-2)"></path>
                </g>
                <path d="M37,319.336876 C37,318.995755 37.1359085,318.652589 37.406246,318.391226 C37.6755267,318.130068 38.0291425,318 38.3825469,318 L254.045073,318 C254.545166,318 255.044624,318.184672 255.426352,318.554629 C255.80977,318.923359 256,319.407636 256,319.892732 L256,348.421549 C256,349.082114 255.739808,349.741451 255.218367,350.244543 C254.698195,350.749067 254.016116,351 253.335094,351 L39.3518728,351 C38.7494788,351 38.1472962,350.777903 37.6898996,350.333914 C37.2310234,349.889515 37,349.308096 37,348.726268 L37,319.336876 Z" id="Fill-4" fill="#4E9EB8"></path>
                <mask id="mask-4" fill="white">
                    <use xlink:href="#path-3"></use>
                </mask>
                <g id="Clip-7"></g>
                <path d="M75.4286615,351 L79,351 L79,318 L75.4286615,318 L75.4286615,351 Z M64.7135948,351 L68.2849333,351 L68.2849333,318 L64.7135948,318 L64.7135948,351 Z M54,351 L57.5711282,351 L57.5711282,318 L54,318 L54,351 Z" id="Fill-6" fill="#3A7C92" mask="url(#mask-4)"></path>
                <path d="M238.429382,351 L242,351 L242,318 L238.429382,318 L238.429382,351 Z M227.714586,351 L231.286255,351 L231.286255,318 L227.714586,318 L227.714586,351 Z M217,351 L220.571879,351 L220.571879,318 L217,318 L217,351 Z" id="Fill-8" fill="#3A7C92" mask="url(#mask-4)"></path>
                <path d="M223.924867,288 C224.711947,288 225.49945,288.298616 226.099543,288.896057 C226.699002,289.492447 227,290.276339 227,291.058548 L227,312.351797 C227,313.285313 226.641467,314.218618 225.925671,314.93075 C225.209874,315.643303 224.271131,316 223.333023,316 L30.8292157,316 C29.850495,316 28.869659,315.626678 28.1210762,314.88319 C27.3733395,314.139071 27,313.16452 27,312.19081 L27,291.316338 C27,290.466367 27.3251121,289.618501 27.9757594,288.971606 C28.6257721,288.323869 29.4794822,288 30.3323462,288 L223.924867,288 Z" id="Fill-9" fill="#FEBE10" mask="url(#mask-4)"></path>
                <polygon id="Fill-10" fill="#FFE46D" mask="url(#mask-4)" points="38 316 46 316 46 288 38 288"></polygon>
                <polygon id="Fill-11" fill="#FFE46D" mask="url(#mask-4)" points="57 318 71 318 71 290 57 290"></polygon>
                <path d="M214,253 L50.1797763,253 C44.556814,253 40,255.919137 40,259.520615 L40,278.478965 C40,282.078556 44.556814,285 50.1797763,285 L214,285 L214,253 Z" id="Fill-12" fill="#E4E3E2" mask="url(#mask-4)"></path>
                <polygon id="Fill-13" fill="#F5F4F2" mask="url(#mask-4)" points="40 266 214 266 214 262 40 262"></polygon>
                <path d="M214,281 L41,281 C41.7742558,282.802976 43.9702805,284.280258 46.8690162,285 L214,285 L214,281 Z" id="Fill-14" fill="#F5F4F2" mask="url(#mask-4)"></path>
                <polygon id="Fill-15" fill="#F5F4F2" mask="url(#mask-4)" points="40 277 214 277 214 273 40 273"></polygon>
                <path d="M41,257 L214,257 L214,253 L46.8690162,253 C43.9702805,253.720593 41.7742558,255.19675 41,257" id="Fill-16" fill="#F5F4F2" mask="url(#mask-4)"></path>
                <path d="M143,256 L214,256 L214,252 L145.570235,252 C144.912626,252 144.254807,252.612437 143.752632,253.837754 C143.251087,255.063293 143,256 143,256" id="Fill-17" fill="#C8B2A8" mask="url(#mask-4)"></path>
                <path d="M167.83225,253.467243 C169.054719,252.248203 170.648458,251.64147 172.240496,251.64147 L213.804654,251.64147 L215.402646,251.64147 C216.28404,251.64147 217,250.879088 217,249.938759 L217,249.702497 C217,248.762383 216.244064,248 215.310786,248 L50.7761134,248 C43.179114,248 37,252.302659 37,257.589598 L37,278.409759 C37,283.696912 43.179114,288 50.7761134,288 L215.310786,288 C216.244064,288 217,287.238046 217,286.297288 L217,286.060813 C217,285.120484 216.28404,284.35853 215.402646,284.35853 L213.804654,284.35853 L172.339374,284.35853 C170.63166,284.35853 168.927348,283.696912 167.633432,282.376464 C166.341217,281.056444 165.706698,279.328863 165.727324,277.608571 L165.969522,257.887176 C165.988234,256.28137 166.610207,254.683711 167.83225,253.467243" id="Fill-18" fill="#FFE46D" mask="url(#mask-4)"></path>
                <path d="M124.568939,288 L115.260461,288 C112.359462,288 110,283.696912 110,278.409759 L110,257.589598 C110,252.302873 112.359462,248 115.260461,248 L124.566617,248 L129,248 C126.099424,248 123.742072,252.302873 123.742072,257.589598 L123.742072,278.409759 C123.742072,283.696912 126.099424,288 129,288 L124.568939,288 Z" id="Fill-19" fill="#005297" mask="url(#mask-4)"></path>
                <path d="M100.595682,264 C101.921624,264 103,265.119721 103,266.499945 L103,271.499172 C103,272.880721 101.921624,274 100.595682,274 L48.4047426,274 C47.0754036,274 46,272.880721 46,271.499172 L46,266.499945 C46,265.119721 47.0754036,264 48.4047426,264 L100.595682,264 Z" id="Fill-20" fill="#005297" mask="url(#mask-4)"></path>
                <path d="M202,246 L38.1793749,246 C32.5568252,246 28,243.080825 28,239.479299 L28,220.520282 C28,216.922321 32.5568252,214 38.1793749,214 L202,214 L202,246 Z" id="Fill-21" fill="#E4E3E2" mask="url(#mask-4)"></path>
                <polygon id="Fill-22" fill="#F5F4F2" mask="url(#mask-4)" points="28 237 202 237 202 233 28 233"></polygon>
                <path d="M201,218 L28,218 C28.774471,216.197377 30.9688054,214.720095 33.8688255,214 L201,214 L201,218 Z" id="Fill-23" fill="#F5F4F2" mask="url(#mask-4)"></path>
                <polygon id="Fill-24" fill="#F5F4F2" mask="url(#mask-4)" points="28 227 202 227 202 223 28 223"></polygon>
                <path d="M28,242 L201,242 L201,246 L33.8688255,246 C30.9688054,245.280692 28.7742587,243.802155 28,242" id="Fill-25" fill="#F5F4F2" mask="url(#mask-4)"></path>
                <path d="M28,217 L201,217 L201,213 L34.2625011,213 C32.66013,213 31.0569094,213.612437 29.8345279,214.837754 C28.6115093,216.063071 28,217 28,217" id="Fill-26" fill="#C8B2A8" mask="url(#mask-4)"></path>
                <path d="M201.804005,245.358374 L203.402003,245.358374 C204.28425,245.358374 205,246.120316 205,247.060629 L205,247.29753 C205,248.23763 204.243848,249 203.311418,249 L38.7763749,249 C31.1791359,249 25,244.696338 25,239.410342 L25,218.590087 C25,213.303876 31.1791359,209 38.7763749,209 L203.311418,209 C204.243848,209 205,209.76237 205,210.702899 L205,210.939585 C205,211.879684 204.28425,212.642055 203.402003,212.642055 L201.804005,212.642055 L36.761601,212.642055 L36.761601,245.358374 L201.804005,245.358374 Z" id="Fill-27" fill="#4E9EB8" mask="url(#mask-4)"></path>
                <polygon id="Fill-28" fill="#6BCCE5" mask="url(#mask-4)" points="74 243 65.1097418 239.798661 58 243 58 227 74 227"></polygon>
                <path d="M61,185 L171.154731,185 C174.936707,185 178,187.00538 178,189.482463 L178,202.516047 C178,204.990789 174.936707,207 171.154731,207 L61,207 L61,185 Z" id="Fill-29" fill="#E4E3E2" mask="url(#mask-4)"></path>
                <polygon id="Fill-30" fill="#F5F4F2" mask="url(#mask-4)" points="61 194 178 194 178 191 61 191"></polygon>
                <path d="M61,204 L178,204 C177.474652,205.351565 175.991677,206.459061 174.031056,207 L61,207 L61,204 Z" id="Fill-31" fill="#F5F4F2" mask="url(#mask-4)"></path>
                <polygon id="Fill-32" fill="#F5F4F2" mask="url(#mask-4)" points="61 200 178 200 178 197 61 197"></polygon>
                <path d="M178,188 L61,188 L61,185 L174.031056,185 C175.991677,185.539354 177.474652,186.646821 178,188" id="Fill-33" fill="#F5F4F2" mask="url(#mask-4)"></path>
                <path d="M181,187 L61,187 L61,183 L176.65632,183 C177.7674,183 178.879548,183.612659 179.728028,184.837754 C180.575867,186.063071 181,187 181,187" id="Fill-34" fill="#C8B2A8" mask="url(#mask-4)"></path>
                <path d="M178.802477,201.032939 L178.802477,187.965994 C178.802477,185.482316 175.528561,183.471771 171.488792,183.471771 L61.1581367,183.471771 L60.0792806,183.471771 C59.482769,183.471771 59,182.712881 59,181.777074 L59,181.695124 C59,180.75889 59.7537563,180 60.6847048,180 L172.690728,180 C177.82548,180 182,182.901323 182,186.464861 L182,202.533859 C182,206.098677 177.82548,209 172.690728,209 L60.6847048,209 C59.7537563,209 59,208.240684 59,207.305089 L59,207.222926 C59,206.287546 59.482769,205.528443 60.0792806,205.528443 L61.1581367,205.528443 L171.488792,205.528443 C175.528561,205.528443 178.802477,203.514056 178.802477,201.032939" id="Fill-35" fill="#005297" mask="url(#mask-4)"></path>
                <path d="M337.316449,154.532646 L269.871707,25.9786972 C268.534605,23.4303425 265.66189,22.2900935 263.466261,23.4605056 L229.224432,41.7131998 C227.028592,42.8838244 226.34666,45.9190365 227.683551,48.4673913 L295.128293,177.021128 C296.465184,179.569482 299.33811,180.709944 301.533739,179.539532 L335.775568,161.286838 C337.971408,160.116213 338.65334,157.080788 337.316449,154.532646" id="Fill-36" fill="#F7F6F5" mask="url(#mask-4)"></path>
                <path d="M307.678065,106.06403 L271.296105,125.139625 C271.024776,125.281916 270.921064,125.615352 271.064582,125.884362 L280.570777,143.706426 C280.714296,143.975436 281.050606,144.078261 281.321935,143.93597 L317.703895,124.860375 C317.975224,124.718297 318.078936,124.384648 317.935418,124.115638 L308.429438,106.293574 C308.28592,106.024564 307.949394,105.921739 307.678065,106.06403" id="Fill-37" fill="#F8AA93" mask="url(#mask-4)"></path>
                <path d="M297.678065,85.0640303 L261.296105,104.139412 C261.024776,104.281703 260.921064,104.615352 261.064582,104.884362 L270.570562,122.706426 C270.714296,122.975436 271.050606,123.078261 271.321935,122.93597 L307.703895,103.860375 C307.975224,103.718084 308.078936,103.384648 307.935418,103.115638 L298.429223,85.293574 C298.285704,85.0245641 297.949394,84.9217388 297.678065,85.0640303" id="Fill-38" fill="#FED66B" mask="url(#mask-4)"></path>
                <path d="M286.678065,66.0640303 L250.296105,85.1396249 C250.024776,85.2819164 249.921064,85.6153521 250.064582,85.884362 L259.570562,103.706426 C259.71408,103.975436 260.050606,104.078261 260.321935,103.93597 L296.703895,84.8603751 C296.975224,84.7180836 297.078936,84.3846479 296.935418,84.115638 L287.429223,66.293574 C287.285704,66.0245641 286.949394,65.9217388 286.678065,66.0640303" id="Fill-39" fill="#FECB40" mask="url(#mask-4)"></path>
                <path d="M276.678065,46.0640303 L240.296105,65.1396249 C240.024776,65.2819164 239.921064,65.6153521 240.064582,65.884362 L249.570562,83.706426 C249.71408,83.9754359 250.050606,84.0782612 250.321935,83.9359697 L286.703895,64.8603751 C286.975224,64.718297 287.078936,64.3846479 286.935418,64.115638 L277.429223,46.293574 C277.285704,46.0245641 276.949394,45.9217388 276.678065,46.0640303" id="Fill-40" fill="#FEC426" mask="url(#mask-4)"></path>
                <path d="M264.678065,27.0640303 L228.296105,46.1396249 C228.024776,46.2819164 227.921064,46.6153521 228.064582,46.884362 L237.570562,64.706426 C237.71408,64.9754359 238.050606,65.0782612 238.321935,64.9359697 L274.703895,45.8603751 C274.975224,45.718297 275.078936,45.3846479 274.935418,45.115638 L265.429223,27.293574 C265.285704,27.0245641 264.949394,26.9217388 264.678065,27.0640303" id="Fill-41" fill="#FEBE10" mask="url(#mask-4)"></path>
                <path d="M318.678065,125.06403 L282.296105,144.139625 C282.024776,144.281916 281.921064,144.615352 282.064582,144.884362 L291.570777,162.706426 C291.714296,162.975436 292.050606,163.078261 292.321935,162.93597 L328.703895,143.860375 C328.975224,143.718084 329.078936,143.384648 328.935418,143.115638 L319.429223,125.293574 C319.285704,125.024564 318.949394,124.921739 318.678065,125.06403" id="Fill-42" fill="#FBCBBD" mask="url(#mask-4)"></path>
                <path d="M355.866819,151.331037 L325.214897,4.4207979 C324.607404,1.50848085 322.083888,-0.445584442 319.581276,0.087749891 L280.555994,8.40575935 C278.053594,8.93909368 276.525675,11.7566527 277.133169,14.6689697 L307.785091,161.579209 C308.392796,164.491313 310.916312,166.445591 313.418712,165.912257 L352.443994,157.594461 C354.946605,157.060913 356.474313,154.243141 355.866819,151.331037" id="Fill-43" fill="#F4F4F4" mask="url(#mask-4)"></path>
                <path d="M339.994421,94.0115222 L298.442803,102.363975 C298.14141,102.424685 297.948614,102.706626 298.012088,102.993917 L302.344717,122.577914 C302.408191,122.865206 302.70397,123.048982 303.005579,122.988478 L344.557197,114.636025 C344.85859,114.575315 345.051386,114.293374 344.987912,114.006083 L340.655283,94.422086 C340.591593,94.1347942 340.295814,93.951018 339.994421,94.0115222" id="Fill-44" fill="#83D3F6" mask="url(#mask-4)"></path>
                <path d="M335.994428,72.0115222 L294.442866,80.3639747 C294.141473,80.4246846 293.948461,80.7066257 294.012151,80.9939174 L298.344775,100.577914 C298.408248,100.865206 298.704027,101.048982 299.005636,100.988478 L340.557198,92.6360253 C340.85859,92.5753154 341.051386,92.2933743 340.987912,92.0060826 L336.655289,72.422086 C336.591599,72.1347942 336.29582,71.951018 335.994428,72.0115222" id="Fill-45" fill="#85C8DE" mask="url(#mask-4)"></path>
                <path d="M330.994428,50.0115222 L289.442866,58.3639747 C289.141473,58.4246846 288.948461,58.7066257 289.012151,58.9939174 L293.344775,78.577914 C293.408248,78.8652058 293.704243,79.048982 294.005636,78.9884778 L335.557198,70.6358195 C335.85859,70.5753154 336.051386,70.2933743 335.987912,70.0060826 L331.655289,50.422086 C331.591599,50.1347942 331.29582,49.951018 330.994428,50.0115222" id="Fill-46" fill="#65BBD6" mask="url(#mask-4)"></path>
                <path d="M325.994421,27.0115222 L284.442803,35.3639747 C284.14141,35.4246846 283.948614,35.7066257 284.012088,35.9939174 L288.344717,55.577914 C288.408191,55.8652058 288.704186,56.048982 289.005579,55.9884778 L330.557197,47.6360253 C330.85859,47.5753154 331.051386,47.2933743 330.987912,47.0060826 L326.655283,27.422086 C326.591593,27.1347942 326.295814,26.951018 325.994421,27.0115222" id="Fill-47" fill="#5CADC7" mask="url(#mask-4)"></path>
                <path d="M320.994421,4.01152218 L279.442803,12.3639747 C279.14141,12.4246846 278.948614,12.7066257 279.012088,12.9939174 L283.344717,32.577914 C283.408191,32.8652058 283.704186,33.048982 284.005579,32.9884778 L325.557197,24.6360253 C325.85859,24.5753154 326.051386,24.2933743 325.987912,24.0060826 L321.655283,4.42208599 C321.591593,4.13479422 321.295814,3.95101804 320.994421,4.01152218" id="Fill-48" fill="#4E9EB8" mask="url(#mask-4)"></path>
                <path d="M344.994421,116.011522 L303.442803,124.363975 C303.14141,124.424685 302.948614,124.706626 303.012088,124.993917 L307.344717,144.577914 C307.408191,144.865206 307.704186,145.048982 308.005579,144.988478 L349.557197,136.63582 C349.85859,136.575315 350.051386,136.293374 349.987912,136.006083 L345.655283,116.422086 C345.591809,116.134794 345.295814,115.951018 344.994421,116.011522" id="Fill-49" fill="#B4E4FB" mask="url(#mask-4)"></path>
                <path d="M225.441292,237.206117 C224.020892,234.805916 225.425046,231.489123 227.800607,230.073505 C230.175957,228.657245 233.146938,228.729084 235.866205,229.240725 C240.264549,230.068373 244.091947,231.771135 248.013659,233.728755 C245.379422,230.480594 242.861863,227.136006 240.456552,223.722999 C238.865671,221.466049 237.323318,219.171041 235.829282,216.84268 C230.481052,220.043375 224.175339,221.586209 217.975122,221.190452 C215.62488,221.040145 212.996128,220.425235 211.790519,218.375892 C210.381513,215.981464 211.786088,212.664671 214.153209,211.244776 C216.520964,209.825095 219.477808,209.89052 222.18315,210.395747 C226.725601,211.244135 230.654276,213.036695 234.71039,215.077273 C230.187139,207.849516 226.163307,200.295061 222.816971,192.443629 C217.100137,194.658459 210.735558,195.138029 204.764268,193.770731 C202.467407,193.245406 199.967782,192.215924 199.097861,189.998314 C198.081934,187.408038 199.987615,184.358718 202.547373,183.337788 C205.106708,182.316217 208.016079,182.855653 210.60833,183.789563 C214.808551,185.30225 218.306802,187.591057 221.858644,190.145841 C218.459982,181.813342 215.687756,172.855242 215.548501,163.81333 C215.545336,163.625394 215.551033,163.436816 215.549345,163.248665 C209.522353,164.67027 203.075697,164.236028 197.2943,161.994472 C195.094917,161.141808 192.765985,159.76104 192.217406,157.441017 C191.576622,154.72994 193.892473,151.987647 196.569753,151.347294 C199.247033,150.706514 202.050064,151.661377 204.484281,152.96047 C208.773119,155.249278 212.111016,158.325965 215.552088,161.682527 C215.671931,151.233762 217.693869,140.762548 217.459246,130.326185 C211.343426,131.837161 204.775661,131.429859 198.894887,129.149817 C196.695715,128.297367 194.366572,126.916813 193.818203,124.596149 C193.17742,121.885286 195.49327,119.143207 198.17055,118.50264 C200.847619,117.861859 203.651073,118.816509 206.084868,120.115816 C210.489119,122.4662 213.890524,125.647439 217.43034,129.109408 C217.32611,126.502455 217.072286,123.898282 216.597976,121.296674 C215.637962,116.029317 213.573825,111.021521 210.73387,106.45139 C205.125486,109.659996 198.523118,111.059579 192.116973,110.376037 C189.775382,110.126096 187.173848,109.399793 186.053902,107.300846 C184.74575,104.84869 186.286626,101.594329 188.710504,100.276634 C191.134805,98.9589394 194.086586,99.1500831 196.768296,99.7699106 C201.686735,100.906724 205.826402,103.136521 210.190776,105.596802 C205.456744,98.3188002 198.752889,92.2154562 191.416479,88.0577589 C186.015712,90.3189852 179.983023,91.0236941 174.220404,90.0303453 C171.898646,89.6296704 169.348383,88.7374524 168.362839,86.5705151 C167.211032,84.0386087 168.952984,80.8905096 171.45514,79.7316738 C173.957086,78.5732657 176.890721,78.9538428 179.528335,79.7457851 C183.736152,81.008745 187.303819,83.0593711 190.926555,85.3727664 C191.085643,85.3761873 191.253382,85.4153141 191.425763,85.5076789 C197.747933,88.9046497 203.351886,93.6081972 207.989283,99.1197225 C209.011963,100.335217 209.995608,101.594329 210.932836,102.890429 C209.553791,97.3019326 209.692412,91.3296524 211.372332,85.8243275 C212.067974,83.5447138 213.275693,81.0993993 215.524659,80.3929799 C218.152356,79.5674698 221.003915,81.7299171 221.809694,84.3952393 C222.615895,87.0605615 221.858644,89.9576508 220.738698,92.5043099 C218.649453,97.2533983 215.621926,100.983053 212.329393,104.91775 C214.175575,107.723116 215.762658,110.699314 216.907502,113.860669 C218.641646,118.648029 219.395733,123.572653 219.610101,128.553722 C220.84124,122.744363 223.706514,117.293132 227.806303,113.042428 C229.452043,111.335818 231.627583,109.718366 233.94702,110.129945 C236.656371,110.611011 238.219823,113.854041 237.736651,116.598472 C237.253479,119.342475 235.275005,121.570134 233.131747,123.317795 C229.02415,126.666231 224.519678,128.599477 219.671288,130.636206 C219.789444,138.861374 218.600503,147.210978 218.041374,155.329669 C217.865617,157.885308 217.761809,160.426622 217.794091,162.960881 C218.81466,156.591988 221.801044,150.558131 226.246227,145.937113 C227.889856,144.228579 230.063498,142.608133 232.383146,143.016505 C235.093552,143.494151 236.661013,146.735042 236.181006,149.479901 C235.701632,152.224546 233.725901,154.455197 231.584752,156.20521 C227.388328,159.635749 222.774773,161.585886 217.802319,163.681625 C217.866039,166.382439 218.098131,169.075556 218.59354,171.768887 C219.499752,176.695008 220.957497,181.510377 222.694596,186.196606 C223.156246,187.442889 223.641318,188.680406 224.142424,189.911722 C224.521155,184.073072 226.516297,178.343463 229.869174,173.577056 C231.235982,171.634189 233.139764,169.696667 235.493593,169.741353 C238.244298,169.793735 240.282061,172.754325 240.221295,175.540876 C240.160952,178.327855 238.544751,180.837953 236.69224,182.898842 C233.269946,186.707392 229.283038,189.272866 224.985338,191.934126 C228.255717,199.60425 232.24579,206.976327 236.672829,214.024913 C235.578834,208.019706 236.22658,201.693789 238.549604,196.0574 C239.457082,193.855612 240.889719,191.538155 243.195019,191.053026 C245.888335,190.486222 248.523205,192.914646 249.073684,195.645821 C249.624796,198.376996 248.598319,201.187493 247.243116,203.613779 C244.671332,208.217478 241.231948,211.676881 237.510257,215.344318 C238.104411,216.273952 238.703839,217.200165 239.311919,218.118468 C242.650449,223.157907 246.227188,228.063288 250.060284,232.751014 C249.083179,226.886065 249.757932,220.741242 252.021456,215.25067 C252.928933,213.048882 254.361359,210.731852 256.66666,210.246082 C259.359976,209.679493 261.995057,212.10813 262.545958,214.839305 C263.096647,217.570266 262.069748,220.380977 260.714545,222.807049 C258.213655,227.284388 254.892427,230.679007 251.289102,234.235478 C255.722048,239.526141 260.492371,244.521963 265.635938,249.091025 C266.707146,250.043109 265.176819,251.661203 264.107511,250.711257 C258.913305,246.097081 254.106059,241.041821 249.63429,235.696851 C244.257787,238.906527 237.909032,240.447436 231.661342,240.036713 C229.299917,239.881488 226.65724,239.260164 225.441292,237.206117" id="Fill-50" fill="#C1E2F7" mask="url(#mask-4)"></path>
                <path d="M528.868851,326.487113 C530.333025,324.516744 529.389305,321.490206 527.420981,320.038345 C525.452868,318.585845 522.827942,318.380656 520.38617,318.582865 C516.436605,318.909805 512.912636,320.053244 509.283009,321.411238 C511.892266,318.808913 514.407089,316.111869 516.829169,313.344797 C518.430973,311.514911 519.993394,309.647563 521.516432,307.746584 C525.946643,311.027268 531.367369,312.944636 536.866862,313.157913 C538.951431,313.238584 541.322694,312.938037 542.566659,311.255019 C544.020458,309.288482 543.076315,306.262156 541.115613,304.807315 C539.1547,303.352474 536.542901,303.143028 534.113833,303.340767 C530.03532,303.672815 526.414163,304.885644 522.658763,306.303875 C527.285044,300.392771 531.500129,294.150681 535.144578,287.588038 C539.986833,290.040089 545.553659,291.033255 550.937331,290.376395 C553.008348,290.124166 555.302327,289.449426 556.265315,287.589315 C557.390072,285.416099 555.980526,282.578147 553.814861,281.454716 C551.64962,280.330646 549.037822,280.539879 546.67037,281.122667 C542.834721,282.066664 539.549169,283.752024 536.192474,285.665348 C539.925641,278.687005 543.161857,271.104802 544.085039,263.21226 C544.104519,263.048152 544.116164,262.882553 544.134162,262.718231 C549.320281,264.504696 555.040406,264.706479 560.334088,263.268027 C562.347936,262.720998 564.522706,261.723788 565.211704,259.744906 C566.016312,257.432272 564.218014,254.825903 561.915142,254.024516 C559.612482,253.222917 557.05743,253.804853 554.797118,254.72118 C550.814734,256.335447 547.600538,258.724495 544.270522,261.348744 C545.089739,252.202719 544.23495,242.86534 545.365635,233.762098 C550.62184,235.634555 556.446352,235.87082 561.831082,234.407677 C563.84493,233.860648 566.019911,232.863651 566.708486,230.88413 C567.513305,228.571922 565.715007,225.965766 563.412136,225.164166 C561.109476,224.362567 558.554212,224.944503 556.294111,225.86083 C552.204376,227.518519 548.925176,229.993346 545.498819,232.70082 C545.821509,230.430756 546.275688,228.176869 546.924033,225.945119 C548.23639,221.42649 550.499031,217.234376 553.406629,213.494997 C558.065307,216.805905 563.760446,218.624936 569.466808,218.605141 C571.552647,218.597691 573.909723,218.197317 575.082545,216.463214 C576.452495,214.437292 575.382579,211.452898 573.363014,210.082346 C571.343025,208.711581 568.724875,208.612605 566.306394,208.912726 C561.870889,209.46316 558.025076,211.039114 553.960961,212.796631 C558.777384,206.860409 565.22589,202.128929 572.059973,199.155391 C576.619557,201.619362 581.874068,202.779617 587.040919,202.430753 C589.122312,202.289845 591.44911,201.739836 592.509498,199.934215 C593.748805,197.824429 592.492135,194.914959 590.38978,193.676162 C588.287002,192.437578 585.667793,192.505903 583.273026,192.960342 C579.453046,193.685102 576.127053,195.15612 572.729491,196.852122 C572.588897,196.840628 572.437715,196.859785 572.277641,196.92513 C566.404852,199.324821 561.049554,202.931806 556.474513,207.332302 C555.465577,208.302905 554.487132,209.315015 553.546588,210.363523 C555.256591,205.601817 555.66313,200.367794 554.669863,195.403241 C554.258666,193.347306 553.410652,191.100231 551.491239,190.2799 C549.24829,189.321216 546.543962,190.95464 545.597701,193.212358 C544.651228,195.469863 545.062213,198.071124 545.823626,200.398657 C547.244605,204.739129 549.582626,208.272893 552.135984,212.010144 C550.260613,214.296171 548.598463,216.755247 547.309609,219.415893 C545.357377,223.445176 544.256759,227.682841 543.626836,232.018417 C543.0562,226.828241 541.013555,221.803876 537.776704,217.717762 C536.477262,216.077314 534.702891,214.466878 532.622345,214.617577 C530.192007,214.793818 528.526893,217.488095 528.709835,219.931207 C528.892566,222.373893 530.439318,224.499856 532.173459,226.221188 C535.497123,229.519112 539.29593,231.615489 543.38863,233.833616 C542.556284,241.014169 542.864999,248.421408 542.639074,255.570033 C542.567718,257.820301 542.434111,260.051412 542.181506,262.264432 C541.845689,256.604066 539.747992,251.059279 536.23948,246.618341 C534.941944,244.97619 533.169902,243.363413 531.089356,243.511345 C528.658171,243.684393 526.98988,246.376755 527.169858,248.819654 C527.349413,251.262553 528.893201,253.390857 530.625436,255.114104 C534.020033,258.491848 537.913699,260.612915 542.110362,262.893621 C541.815198,265.249251 541.372241,267.582744 540.697217,269.893037 C539.462356,274.118143 537.751083,278.196808 535.805415,282.137331 C535.288349,283.185413 534.751167,284.223491 534.200435,285.254757 C534.383589,280.116091 533.132424,274.926767 530.599392,270.457094 C529.566954,268.635083 528.060432,266.769438 525.982004,266.59639 C523.553147,266.393968 521.495046,268.798553 521.30194,271.240388 C521.108411,273.682436 522.310452,276.02274 523.760863,277.991831 C526.439783,281.630106 529.726393,284.232643 533.278524,286.946928 C529.717288,293.358022 525.547939,299.443452 521.022233,305.207051 C522.518168,300.055188 522.507369,294.466128 520.958923,289.328739 C520.353985,287.321973 519.296562,285.166424 517.307911,284.534467 C514.984289,283.796085 512.447234,285.681738 511.720123,288.019914 C510.992588,290.357877 511.648555,292.907628 512.628059,295.151297 C514.487126,299.408119 517.212205,302.742866 520.167444,306.285144 C519.561447,307.044174 518.951216,307.799797 518.333997,308.547758 C514.94554,312.652816 511.359108,316.619095 507.565807,320.371883 C508.946132,315.332193 508.895527,309.898941 507.386676,304.894584 C506.781738,302.887605 505.724314,300.732695 503.735663,300.1001 C501.412041,299.361717 498.874775,301.247583 498.147452,303.585759 C497.420341,305.923722 498.076519,308.473686 499.056023,310.71693 C500.864061,314.857108 503.49047,318.124595 506.351273,321.558744 C501.976114,325.784702 497.329505,329.722246 492.391967,333.253243 C491.363551,333.989071 492.568981,335.541824 493.595491,334.807699 C498.581728,331.242007 503.266026,327.255507 507.680358,322.985915 C512.134919,326.277028 517.593546,328.196738 523.136445,328.400862 C525.231178,328.47834 527.615357,328.173324 528.868851,326.487113" id="Fill-51" fill="#C1E2F7" mask="url(#mask-4)"></path>
                <path d="M254.587266,331.999242 C254.771756,332.009746 254.948549,331.909957 254.990879,331.767526 C255.035247,331.617592 254.913462,331.476537 254.718559,331.452902 C253.642634,331.321976 252.544977,331.171417 251.455923,331.005351 C251.261926,330.97559 251.064759,331.073003 251.012469,331.222187 C250.96063,331.37137 251.075172,331.515927 251.268038,331.545314 C252.365694,331.71288 253.472405,331.864689 254.557385,331.996491 C254.567346,331.997867 254.577306,331.998617 254.587266,331.999242" id="Fill-52" fill="#325899" mask="url(#mask-4)"></path>
                <path d="M456.695682,55.0522756 C454.660103,54.6453824 452.576625,54.2712964 450.503153,53.9387518 C450.318159,53.9093532 450.196177,53.6769341 450.230026,53.4195902 C450.2643,53.1620332 450.44674,52.9581606 450.626625,53.0073712 C452.706271,53.3405549 454.795922,53.7159192 456.837674,54.1238775 C457.021605,54.1607322 457.13869,54.398051 457.099519,54.6543298 C457.061839,54.900383 456.894514,55.0740049 456.718886,55.0558971 C456.71101,55.055045 456.703346,55.0535538 456.695682,55.0522756 M468.964293,58.0066181 C466.954472,57.4371807 464.898031,56.8988461 462.851595,56.4061007 C462.668942,56.3626419 462.556966,56.1197842 462.601245,55.8645706 C462.645738,55.608931 462.834564,55.4344569 463.012321,55.4821763 C465.06493,55.9757739 467.128184,56.5158127 469.143965,57.0873804 C469.325341,57.1385083 469.431995,57.3858397 469.382393,57.6397751 C469.336623,57.8738985 469.173769,58.031969 469.006443,58.0147133 C468.992393,58.0134351 468.978343,58.0106657 468.964293,58.0066181 M481.033433,61.9683939 C479.059802,61.227891 477.039125,60.5180648 475.027176,59.8583014 C474.847503,59.7990783 474.746384,59.5468471 474.801521,59.294616 C474.856444,59.0423848 475.046122,58.8872967 475.226646,58.9446026 C477.245195,59.6069224 479.272897,60.319305 481.253127,61.0617252 C481.430884,61.1288306 481.526042,61.3859615 481.46537,61.6358493 C481.411724,61.8574037 481.254404,61.9994968 481.095594,61.9830932 C481.074732,61.9809629 481.053869,61.9760631 481.033433,61.9683939 M492.842218,66.9959742 C490.917125,66.0743932 488.942856,65.1828498 486.97476,64.3460559 C486.79892,64.2712813 486.710148,64.0092507 486.776567,63.7612802 C486.842773,63.5133097 487.039264,63.3746252 487.214891,63.4476955 C489.190225,64.2874718 491.171519,65.1822107 493.104063,66.1072003 C493.277349,66.1902831 493.359521,66.4565745 493.287141,66.7019886 C493.22647,66.9088437 493.075324,67.0347462 492.925242,67.0191948 C492.897354,67.0164254 492.869467,67.0085431 492.842218,66.9959742 M504.314223,73.154973 C502.457891,72.0423014 500.544294,70.9568979 498.626438,69.9290134 C498.455494,69.8369831 498.380559,69.5664311 498.458687,69.3239995 C498.536602,69.082207 498.738201,68.9575826 498.909784,69.0517432 C500.835303,70.0841015 502.756565,71.1737656 504.620348,72.2902718 C504.788312,72.3908234 504.855796,72.6660622 504.771281,72.9048722 C504.703798,73.0955368 504.559889,73.2050358 504.419174,73.1905496 C504.383623,73.186715 504.348072,73.1752112 504.314223,73.154973 M515.34833,80.5355035 C513.579918,79.2183201 511.744449,77.923079 509.893651,76.6872742 C509.729093,76.5773492 509.669699,76.2980628 509.7606,76.0637265 C509.851714,75.828751 510.059274,75.7296906 510.22298,75.8374854 C512.082293,77.0796811 513.925852,78.380035 515.702779,79.7029703 C515.863079,79.8229079 515.913958,80.1058158 515.816032,80.3356785 C515.743227,80.5071701 515.607834,80.6004786 515.477337,80.5870575 C515.433058,80.5823707 515.389204,80.5655411 515.34833,80.5355035 M525.808081,89.2447211 C524.149091,87.6993793 522.417295,86.1761929 520.660591,84.7160643 C520.504762,84.5861141 520.46325,84.2993716 520.567988,84.0750478 C520.673151,83.850724 520.884543,83.773606 521.040373,83.9035562 C522.806018,85.3711409 524.546755,86.9026356 526.214686,88.4556467 C526.36562,88.5962485 526.396701,88.8868256 526.284299,89.1041193 C526.207023,89.2536685 526.082274,89.3301474 525.96306,89.3177915 C525.908562,89.3122526 525.855341,89.2883929 525.808081,89.2447211 M535.494645,99.4234408 C533.99191,97.6337501 532.40019,95.8559892 530.763552,94.1400078 C530.619005,93.9885413 530.598994,93.6954078 530.71906,93.4855703 C530.839551,93.2750936 531.054136,93.2282263 531.198257,93.3799059 C532.845326,95.1061128 534.446839,96.8947384 535.959366,98.6957199 C536.096675,98.8595423 536.103913,99.1550192 535.975758,99.3559093 C535.896779,99.4790424 535.785016,99.5380526 535.678788,99.5271879 C535.611943,99.5203709 535.547652,99.4860725 535.494645,99.4234408 M544.106366,111.242728 C542.817152,109.178438 541.421709,107.117769 539.959422,105.116749 C539.830841,104.940358 539.837227,104.643816 539.974323,104.454217 C540.110781,104.264617 540.326218,104.253539 540.455437,104.429505 C541.929007,106.445437 543.335094,108.522935 544.634952,110.604268 C544.753315,110.793654 544.730962,111.090623 544.585138,111.266801 C544.5085,111.359257 544.413129,111.400586 544.322441,111.391212 C544.240482,111.382691 544.162567,111.332841 544.106366,111.242728 M551.162983,124.87514 C550.181383,122.510899 549.072906,120.138563 547.868845,117.823319 C547.763042,117.619873 547.803277,117.324822 547.958468,117.164834 C548.112808,117.005272 548.325051,117.04021 548.431279,117.243656 C549.647475,119.582333 550.767448,121.979168 551.759266,124.369186 C551.849954,124.587119 551.789708,124.876844 551.62515,125.016807 C551.557879,125.074113 551.483583,125.09712 551.413332,125.089877 C551.310936,125.079226 551.216629,125.004238 551.162983,124.87514 M555.900888,140.371591 C555.375708,137.722099 554.696826,135.040012 553.882978,132.400746 C553.81145,132.168753 553.894261,131.887336 554.067973,131.772937 C554.241259,131.65726 554.440303,131.752699 554.512258,131.985544 C555.337176,134.661027 556.025424,137.380394 556.558481,140.068871 C556.607018,140.313859 556.499087,140.580363 556.317711,140.663659 C556.271729,140.684962 556.225746,140.692419 556.181679,140.687945 C556.050757,140.674311 555.937078,140.555012 555.900888,140.371591 M557.268656,157.282155 C557.377013,154.457124 557.311445,151.57436 557.074081,148.713752 C557.053006,148.458752 557.187122,148.214616 557.373819,148.167962 C557.562007,148.119816 557.729333,148.290243 557.750408,148.545243 C557.992029,151.456766 558.058661,154.391936 557.948388,157.268521 C557.938383,157.527143 557.778083,157.740176 557.590533,157.744277 C557.580315,157.744437 557.570097,157.744011 557.559878,157.742946 C557.387444,157.725264 557.259289,157.527356 557.268656,157.282155 M554.635304,174.817333 C554.462443,174.732546 554.381974,174.464976 554.455418,174.22084 C555.276505,171.488478 555.92984,168.676016 556.397329,165.862275 C556.439693,165.606848 556.62192,165.431309 556.805637,165.474129 C556.988716,165.515244 557.10282,165.755971 557.060244,166.011824 C556.584027,168.879462 555.918344,171.744757 555.081717,174.52846 C555.019982,174.733185 554.869474,174.857383 554.720669,174.842045 C554.69193,174.839062 554.663191,174.831393 554.635304,174.817333 M546.700122,188.470835 C546.594745,188.26611 546.635831,187.971911 546.791448,187.812349 C548.590089,185.973661 550.120925,183.967529 551.34223,181.849341 C551.462934,181.640143 551.678158,181.593914 551.82164,181.746233 C551.965761,181.898765 551.984495,182.192537 551.864004,182.401523 C550.602038,184.59065 549.02373,186.659628 547.172507,188.552213 C547.099702,188.626562 547.014549,188.658304 546.934079,188.649995 C546.842327,188.640622 546.75611,188.579482 546.700122,188.470835 M535.249617,196.42975 C535.195971,196.186679 535.298154,195.916553 535.478466,195.826227 C537.601752,194.755736 539.579214,193.58938 541.355716,192.359966 C541.52815,192.241307 541.728472,192.33142 541.80362,192.560643 C541.878554,192.790506 541.799788,193.073627 541.627353,193.192926 C539.825945,194.439595 537.822724,195.621076 535.67304,196.704136 C535.624503,196.728848 535.575114,196.737796 535.527854,196.732896 C535.400338,196.719688 535.288788,196.60678 535.249617,196.42975 M522.892661,201.153119 C522.865199,200.900036 522.993567,200.650361 523.179413,200.594972 C525.349959,199.949695 527.437694,199.244769 529.384501,198.500644 C529.567154,198.432687 529.748743,198.575206 529.787487,198.824668 C529.826232,199.074342 529.708295,199.333604 529.524365,199.403904 C527.564359,200.152716 525.463212,200.86169 523.279255,201.511227 C523.245832,201.521453 523.212835,201.524222 523.180903,201.521027 C523.035717,201.505902 522.915226,201.360613 522.892661,201.153119 M510.302811,204.092549 C510.290251,203.835631 510.432243,203.600017 510.619792,203.565079 C512.79268,203.161808 514.911071,202.719977 516.915356,202.251304 C517.103544,202.206141 517.269379,202.378698 517.288538,202.634338 C517.307485,202.889338 517.171666,203.131983 516.984755,203.175442 C514.972168,203.646245 512.846114,204.089993 510.665136,204.494329 C510.640868,204.499016 510.617025,204.499655 510.594034,204.497312 C510.438204,204.481334 510.313668,204.315808 510.302811,204.092549 M497.650123,205.936563 C497.647393,205.679006 497.797262,205.451913 497.985237,205.429971 C500.141733,205.182852 502.268639,204.905909 504.306772,204.607663 C504.494747,204.583164 504.652706,204.767012 504.659944,205.024356 C504.666969,205.282339 504.520719,205.512841 504.332957,205.540961 C502.289714,205.839207 500.157487,206.116789 497.995881,206.365612 C497.977361,206.367316 497.959479,206.367316 497.941809,206.365612 C497.77938,206.348782 497.652928,206.170048 497.650123,205.936563 M484.987013,207.052643 C484.990699,206.793808 485.14589,206.574171 485.333865,206.561602 C487.492064,206.417166 489.620247,206.252491 491.660083,206.071839 C491.846142,206.055436 491.999417,206.251639 491.999205,206.509835 C491.998353,206.768457 491.845504,206.991503 491.657529,207.008546 C489.614286,207.189198 487.482271,207.354085 485.320666,207.498309 C485.306403,207.499161 485.292566,207.498948 485.278728,207.49767 C485.110977,207.480414 484.983674,207.291667 484.987013,207.052643 M472.330598,207.654888 C472.339113,207.395414 472.497923,207.180889 472.685685,207.175137 C474.842394,207.105689 476.969938,207.020902 479.008711,206.923332 C479.196898,206.90842 479.343787,207.116127 479.337826,207.375815 C479.33144,207.634224 479.17412,207.851304 478.986358,207.860252 C476.944818,207.958886 474.81472,208.043247 472.655243,208.112483 C472.64396,208.113122 472.633103,208.112696 472.622033,208.111418 C472.450663,208.093949 472.322721,207.897746 472.330598,207.654888 M459.686676,207.883685 C459.698385,207.624424 459.860175,207.413521 460.047724,207.411817 C462.17463,207.398609 464.280886,207.372406 466.365215,207.334273 C466.554467,207.331717 466.696672,207.53772 466.686454,207.796981 C466.676235,208.056242 466.515722,208.268849 466.328173,208.272045 C464.241928,208.310178 462.133543,208.335742 460.004722,208.350441 C459.995781,208.350015 459.986627,208.349802 459.977686,208.34895 C459.803761,208.330842 459.67518,208.129952 459.686676,207.883685 M447.055527,207.834901 C447.070003,207.576066 447.233497,207.367719 447.421046,207.370276 C449.541565,207.396266 451.646118,207.413095 453.732788,207.420765 C453.917996,207.425877 454.061266,207.63188 454.048493,207.890929 C454.035294,208.149977 453.872439,208.359601 453.685103,208.358752 C451.596729,208.350867 449.490899,208.333824 447.36889,208.307834 C447.361439,208.307621 447.353775,208.307621 447.346537,208.306769 C447.170484,208.288661 447.04169,208.08351 447.055527,207.834901 M434.436087,207.583096 C434.452479,207.324474 434.617462,207.118471 434.804586,207.123157 C436.919996,207.178759 439.022633,207.227331 441.111645,207.269085 C441.301323,207.27505 441.438419,207.486166 441.422666,207.745001 C441.407338,208.004262 441.242993,208.210691 441.055657,208.207496 C438.96558,208.165528 436.861879,208.116744 434.74583,208.061142 C434.739231,208.061142 434.733057,208.060503 434.726884,208.059864 C434.549127,208.041543 434.420546,207.833197 434.436087,207.583096 M421.826865,207.181955 C421.844534,206.922906 422.010369,206.718395 422.197493,206.725425 C424.308219,206.801904 426.409366,206.873909 428.500294,206.939736 C428.692952,206.938032 428.825578,207.160012 428.808335,207.419699 C428.791304,207.678322 428.625895,207.883259 428.438771,207.877508 C426.347204,207.81168 424.244993,207.739675 422.133841,207.662983 C422.128093,207.662983 422.122771,207.662344 422.117236,207.661705 C421.938628,207.643384 421.809621,207.433121 421.826865,207.181955 M409.224455,206.677705 C409.243189,206.418657 409.409875,206.215637 409.596786,206.223732 C411.703893,206.314058 413.803976,206.401188 415.896607,206.485336 C416.079899,206.485123 416.220401,206.708808 416.202306,206.96743 C416.184211,207.226265 416.017737,207.430138 415.830614,207.422682 C413.737769,207.338534 411.637048,207.25119 409.529728,207.161077 C409.524832,207.160864 409.519723,207.160438 409.514826,207.160012 C409.33558,207.141478 409.206573,206.930149 409.224455,206.677705 M396.627154,206.109972 C396.646314,205.850924 396.813213,205.64833 397.000337,205.657277 C399.104038,205.755272 401.203908,205.851776 403.298029,205.946363 C403.495584,205.931024 403.621397,206.1709 403.602664,206.429948 C403.583717,206.688996 403.416605,206.892017 403.229907,206.883282 C401.13536,206.788696 399.035703,206.692192 396.931363,206.594409 C396.92668,206.594409 396.921996,206.59377 396.917526,206.593344 C396.73764,206.57481 396.608634,206.362203 396.627154,206.109972 M384.032196,205.512841 C384.051355,205.254431 384.218467,205.051198 384.405378,205.060784 L390.702857,205.360948 C390.885936,205.351361 391.0258,205.586124 391.006853,205.845172 C390.987481,206.104007 390.820581,206.307241 390.633458,206.297867 L384.335978,205.997704 C384.331295,205.997917 384.326824,205.997491 384.322354,205.997065 C384.142468,205.978531 384.013462,205.765711 384.032196,205.512841 M371.436811,204.918265 C371.45597,204.659856 371.62287,204.456623 371.80978,204.465357 C373.909224,204.5625 376.008881,204.660495 378.108111,204.760195 C378.303324,204.758064 378.431266,204.98601 378.412107,205.244419 C378.392948,205.503254 378.225835,205.705848 378.038925,205.696901 C375.939907,205.597628 373.84025,205.499419 371.741232,205.402489 C371.736336,205.402489 371.731653,205.402063 371.727182,205.401637 C371.547297,205.383103 371.418503,205.170496 371.436811,204.918265 M358.827589,204.360119 C358.84611,204.10107 359.012583,203.897411 359.199707,203.905506 C361.297022,203.993702 363.397317,204.085093 365.498889,204.178827 C365.681968,204.17968 365.822257,204.403577 365.803524,204.662626 C365.784577,204.921461 365.61789,205.124694 365.430767,205.115747 C363.32962,205.022438 361.229964,204.930834 359.133075,204.842852 C359.127966,204.842852 359.123069,204.842425 359.118173,204.841786 C358.938713,204.823252 358.80992,204.611924 358.827589,204.360119 M346.239016,203.870782 C346.256473,203.612373 346.422521,203.407222 346.609644,203.414039 C348.705895,203.488813 350.807041,203.567423 352.912446,203.649653 C353.099356,203.639215 353.236665,203.872486 353.218357,204.131747 C353.200475,204.390156 353.034214,204.594455 352.847091,204.586999 C350.742538,204.504768 348.641817,204.426159 346.545992,204.35181 C346.540458,204.35181 346.534923,204.351171 346.529388,204.350745 C346.350992,204.332211 346.221986,204.122161 346.239016,203.870782 M333.629156,203.485831 C333.645335,203.22657 333.810318,203.02078 333.997655,203.025253 C336.092841,203.079364 338.195903,203.139013 340.304927,203.204414 C340.496308,203.204414 340.629998,203.424477 340.612967,203.683739 C340.59615,203.943 340.43074,204.147938 340.243404,204.142186 C338.135232,204.076998 336.033234,204.017348 333.938686,203.963238 C333.9323,203.963238 333.926339,203.962599 333.919953,203.96196 C333.742196,203.943639 333.613615,203.735932 333.629156,203.485831 M321.009928,203.243186 C321.024404,202.983712 321.188111,202.775792 321.375447,202.778561 C323.469781,202.805403 325.574121,202.839702 327.688041,202.880817 C327.869417,202.879113 328.014389,203.097898 327.999062,203.356733 C327.983734,203.615355 327.819602,203.822423 327.632266,203.819228 C325.519836,203.778112 323.416348,203.742749 321.323291,203.71612 C321.31584,203.715907 321.308176,203.715694 321.300938,203.715055 C321.124885,203.696947 320.996091,203.491583 321.009928,203.243186 M308.380057,203.191419 C308.392191,202.932371 308.554194,202.721894 308.741743,202.720829 C310.834801,202.712095 312.941482,202.71316 315.060298,202.723599 C315.243164,202.733824 315.388775,202.934501 315.375364,203.194189 C315.361952,203.453237 315.19931,203.662222 315.011548,203.661373 C312.894648,203.651145 310.789244,203.650079 308.697677,203.659453 C308.688523,203.659027 308.679795,203.658601 308.67128,203.657749 C308.496929,203.639854 308.368348,203.438325 308.380057,203.191419 M295.738264,203.385918 C295.747418,203.127083 295.907292,202.913411 296.094841,202.908085 C298.186834,202.853549 300.295645,202.811155 302.419783,202.780905 C302.610951,202.777283 302.75124,202.985416 302.740383,203.244678 C302.729313,203.503939 302.568587,203.715694 302.381038,203.718676 C300.258603,203.74914 298.151496,203.791746 296.061632,203.846496 C296.050775,203.846496 296.040131,203.84607 296.029699,203.844792 C295.857691,203.82711 295.729748,203.630054 295.738264,203.385918 M283.084975,203.897411 C283.090297,203.638789 283.246766,203.42043 283.434741,203.410417 C285.508425,203.297936 287.638524,203.198662 289.766068,203.115153 C289.951489,203.10578 290.100506,203.311357 290.092842,203.570405 C290.085391,203.82924 289.92722,204.045682 289.739245,204.052712 C287.614468,204.136008 285.486711,204.234855 283.415368,204.34755 C283.402382,204.348189 283.389184,204.347976 283.376411,204.346484 C283.207595,204.329229 283.079866,204.138138 283.084975,203.897411 M270.423383,204.818566 C270.42381,204.560157 270.576234,204.337111 270.764208,204.319642 C272.824056,204.132386 274.955858,203.960043 277.100645,203.806233 C277.28713,203.795368 277.438489,203.991358 277.435552,204.249981 C277.432741,204.508816 277.277763,204.729944 277.089788,204.743152 C274.948194,204.895897 272.819586,205.068454 270.763144,205.255497 C270.746965,205.257627 270.730999,205.257201 270.715246,205.255497 C270.549836,205.238454 270.422958,205.054819 270.423383,204.818566 M257.762219,206.282529 C257.75562,206.025398 257.902721,205.794896 258.090483,205.768693 C260.129043,205.483442 262.261057,205.213742 264.42692,204.966837 C264.614469,204.949794 264.769447,205.137476 264.772259,205.395672 C264.775195,205.653868 264.625113,205.88011 264.437138,205.902052 C262.27532,206.147679 260.147776,206.417166 258.1139,206.701778 C258.093251,206.704547 258.073027,206.70476 258.053442,206.702843 C257.893354,206.68644 257.767754,206.512605 257.762219,206.282529 M245.121065,208.479326 C245.105524,208.223473 245.244536,207.984237 245.431872,207.945039 C247.473625,207.52089 249.601808,207.119323 251.757665,206.751415 C251.944363,206.71946 252.10594,206.901816 252.116585,207.158734 C252.127016,207.415865 251.98332,207.650414 251.795771,207.682156 C249.6463,208.048999 247.524078,208.449927 245.488499,208.873011 C245.462315,208.878124 245.436769,208.879402 245.411862,208.876846 C245.258161,208.860868 245.134476,208.699815 245.121065,208.479326 M232.549736,211.707203 C232.520571,211.454972 232.647874,211.203593 232.833507,211.146926 C234.841412,210.52913 236.956396,209.939028 239.120556,209.392812 C239.307253,209.345518 239.476069,209.514454 239.49757,209.769028 C239.519284,210.02339 239.385381,210.268165 239.198896,210.315458 C237.043465,210.859544 234.937209,211.446876 232.938245,212.061051 C232.903971,212.071702 232.870123,212.075111 232.837552,212.071702 C232.693431,212.057003 232.573153,211.913419 232.549736,211.707203 M220.175323,216.470196 C220.125721,216.225634 220.232588,215.958491 220.413963,215.873277 C222.357365,214.961922 224.435094,214.087847 226.58861,213.275339 C226.772753,213.205038 226.952638,213.352244 226.990531,213.601706 C227.02885,213.851168 226.910275,214.110003 226.725919,214.179452 C224.586453,214.986847 222.5232,215.854957 220.59321,216.759495 C220.546802,216.781224 220.500181,216.78868 220.455688,216.784207 C220.325404,216.770786 220.212151,216.652552 220.175323,216.470196 M208.370795,223.671992 C208.287132,223.44852 208.35568,223.161351 208.523857,223.030549 C210.31079,221.640722 212.274841,220.307135 214.361511,219.06643 C214.537778,218.961618 214.732991,219.067708 214.797707,219.30524 C214.861997,219.542133 214.771309,219.819076 214.594617,219.923888 C212.531789,221.150319 210.591369,222.468142 208.827214,223.839649 C208.763137,223.889712 208.693737,223.909524 208.627744,223.902707 C208.520664,223.891842 208.422738,223.81025 208.370795,223.671992 M198.29189,234.805313 C198.156284,234.638508 198.152027,234.342605 198.282098,234.144271 C198.74171,233.442753 199.225591,232.739318 199.720329,232.053565 C200.732584,230.648185 201.861072,229.277957 203.074287,227.981438 C203.227563,227.817402 203.440019,227.846801 203.548802,228.047478 C203.657584,228.248368 203.621607,228.543632 203.468119,228.707667 C202.280663,229.977344 201.176443,231.317322 200.186541,232.691386 C199.700531,233.365422 199.224953,234.057567 198.773004,234.746515 C198.694025,234.866879 198.583752,234.923972 198.479226,234.913107 C198.411104,234.906077 198.345324,234.870501 198.29189,234.805313 M191.655928,250.069131 C191.47881,249.998618 191.386419,249.739782 191.449432,249.490321 C192.145557,246.737081 193.104378,244.002802 194.298647,241.364388 C194.401043,241.138573 194.611371,241.057407 194.769329,241.18267 C194.927075,241.308999 194.97178,241.594463 194.869171,241.820704 C193.703854,244.395635 192.768876,247.061531 192.090421,249.744469 C192.035284,249.963041 191.879029,250.101299 191.722134,250.085322 C191.699995,250.082979 191.677855,250.077653 191.655928,250.069131 M190.328182,266.947315 C189.993957,264.014276 189.914552,261.072715 190.092096,258.204438 C190.108275,257.945816 190.272833,257.739174 190.460169,257.743782 C190.652827,257.742156 190.786092,257.962646 190.770338,258.221268 C190.597265,261.014344 190.674754,263.881343 191.000677,266.741099 C191.029416,266.993969 190.902325,267.244709 190.716692,267.302015 C190.682631,267.312028 190.648783,267.315223 190.616212,267.312028 C190.471665,267.297115 190.351812,267.153531 190.328182,266.947315 M194.612648,282.974431 C193.542915,280.423786 192.644979,277.833091 191.944596,275.274564 C191.87988,275.037672 191.970568,274.760729 192.146834,274.655277 C192.323101,274.549187 192.518527,274.65549 192.583668,274.89217 C193.271916,277.407238 194.154739,279.954475 195.207654,282.464643 C195.298767,282.681937 195.239586,282.972514 195.075454,283.113116 C195.00797,283.170848 194.933249,283.194707 194.862359,283.187251 C194.760601,283.176813 194.666507,283.102464 194.612648,282.974431 M202.039042,296.442381 C200.590804,294.339532 199.247305,292.178099 198.04516,290.01773 C197.934674,289.819184 197.968309,289.523494 198.120307,289.356902 C198.271666,289.190949 198.484974,289.217365 198.595673,289.415912 C199.78462,291.552208 201.114069,293.691272 202.54783,295.772179 C202.672366,295.953897 202.660019,296.251078 202.519517,296.43599 C202.441602,296.538672 202.340908,296.584901 202.244899,296.574888 C202.168261,296.567006 202.094817,296.522695 202.039042,296.442381 M211.209578,307.64856 C209.550801,305.920435 207.952269,304.122223 206.458262,302.303347 C206.32223,302.138033 206.316908,301.84213 206.446553,301.642945 C206.576199,301.443546 206.791422,301.41649 206.927667,301.582656 C208.410391,303.38662 209.996576,305.171198 211.643006,306.886966 C211.787979,307.038007 211.808416,307.330501 211.688989,307.540978 C211.610435,307.67881 211.491434,307.747194 211.377968,307.735477 C211.318148,307.729299 211.259606,307.701179 211.209578,307.64856 M221.483696,316.922102 C219.6891,315.519705 217.922391,314.036569 216.23232,312.514448 C216.080109,312.377041 216.045835,312.087743 216.155895,311.868319 C216.266594,311.647829 216.479689,311.58115 216.631261,311.718556 C218.310262,313.231517 220.065688,314.705067 221.849002,316.09809 C222.007599,316.222288 222.05422,316.5069 221.953527,316.734207 C221.879444,316.901225 221.74618,316.990912 221.618025,316.977703 C221.571404,316.973017 221.525634,316.954696 221.483696,316.922102 M232.560593,324.39445 C230.668496,323.306916 228.775548,322.12586 226.934969,320.884304 C226.770837,320.773314 226.712082,320.494027 226.803834,320.259691 C226.895799,320.025354 227.103359,319.925016 227.266852,320.036006 C229.096362,321.27032 230.977388,322.444558 232.857989,323.525275 C233.027017,323.622205 233.097694,323.895739 233.015309,324.13604 C232.949315,324.329261 232.803704,324.442382 232.661073,324.427683 C232.627225,324.424061 232.593376,324.413196 232.560593,324.39445 M244.277413,329.983585 C242.313788,329.237756 240.317592,328.381363 238.3446,327.438905 C238.171314,327.355822 238.088929,327.089318 238.161096,326.844543 C238.23305,326.598916 238.429966,326.469179 238.60602,326.550131 C240.565813,327.486837 242.548597,328.337478 244.49881,329.078194 C244.676567,329.145726 244.771086,329.40307 244.709989,329.653384 C244.655917,329.87366 244.49881,330.015114 244.340426,329.99871 C244.31935,329.99658 244.298062,329.99168 244.277413,329.983585" id="Fill-53" fill="#325899" mask="url(#mask-4)"></path>
                <path d="M444.593345,52.9989895 C444.786053,53.0136705 444.965394,52.8666956 444.995693,52.6684197 C445.025991,52.4686592 444.893212,52.2926522 444.698945,52.2750021 C443.607304,52.1765239 442.509871,52.0851389 441.406645,52.0010118 C441.212155,51.9861659 441.031477,52.1364399 441.003629,52.3363653 C440.975781,52.5362908 441.111234,52.7104832 441.305947,52.7253292 C442.405831,52.8091263 443.500145,52.9003464 444.588667,52.9986596 L444.593345,52.9989895 Z" id="Fill-54" fill="#325899" mask="url(#mask-4)"></path>
                <polygon id="Fill-55" fill="#244885" mask="url(#mask-4)" points="438 52 428 51.6958903 431.491347 48"></polygon>
                <polygon id="Fill-56" fill="#3A67B3" mask="url(#mask-4)" points="428.471677 54 416 50 432 50.6842767"></polygon>
                <polygon id="Fill-57" fill="#3A67B3" mask="url(#mask-4)" points="418 50 438 42 434.834548 46.7693948"></polygon>
                <polygon id="Fill-58" fill="#295399" mask="url(#mask-4)" points="418 49.6497334 432.7181 50.4553563 438 53 434.001371 47"></polygon>
                <path d="M432,345 L432,349.697815 C432,351.5216 433.438005,353 435.211694,353 L464.788306,353 C466.561995,353 468,351.5216 468,349.697815 L468,345 L432,345 Z" id="Fill-59" fill="#426F9E" mask="url(#mask-4)"></path>
                <path d="M331,345 L331,349.697815 C331,351.5216 332.438005,353 334.211694,353 L363.788306,353 C365.561995,353 367,351.5216 367,349.697815 L367,345 L331,345 Z" id="Fill-60" fill="#426F9E" mask="url(#mask-4)"></path>
                <path d="M260,345 L260,349.697815 C260,351.5216 261.438005,353 263.211694,353 L292.788306,353 C294.561995,353 296,351.5216 296,349.697815 L296,345 L260,345 Z" id="Fill-61" fill="#426F9E" mask="url(#mask-4)"></path>
                <path d="M487,147.924693 L487,330.428904 C487,340.137384 479.137178,348 469.428493,348 L263.571294,348 C253.862609,348 246,340.137384 246,330.428904 L246,143.315147 C246,123.255545 262.255743,107 282.315115,107 L446.07513,107 C458.047661,107 468.826989,112.15009 476.312326,120.349267 C482.951251,127.620396 487,137.298396 487,147.924693" id="Fill-62" fill="#6D99C8" mask="url(#mask-4)"></path>
                <polygon id="Fill-63" fill="#6D99C8" mask="url(#mask-4)" points="284 107 447 107 447 99 284 99"></polygon>
                <path d="M476.06695,145.431078 L458.75602,121.965858 C457.844839,120.730779 456.388367,120 454.8379,120 L347.848211,120 C344.306281,120 341.962663,123.621361 343.459265,126.781734 L354.571549,150.247165 C355.367061,151.926331 357.078476,153 358.960495,153 L472.14883,153 C476.105363,153 478.391898,148.582577 476.06695,145.431078" id="Fill-64" fill="#426F9E" mask="url(#mask-4)"></path>
                <path d="M334,158.712067 L334,348 L263.575624,348 C253.870198,348 246,340.127487 246,330.42965 L246,143.313606 C246,123.258265 262.253484,107 282.30314,107 L282.30314,107 C310.854553,107 334,130.152255 334,158.712067" id="Fill-65" fill="#BCD8ED" mask="url(#mask-4)"></path>
                <path d="M388.569276,126.52041 C388.395268,126.222635 388.077144,126.039718 387.733825,126.039289 L353.97331,126 C353.243544,125.999142 352.77383,126.778039 353.111597,127.428336 L364.048258,148.47315 C364.215648,148.7954 364.547223,148.997209 364.908477,148.997209 L400.027748,149 C400.77865,149 401.245162,148.179453 400.86448,147.528512 L388.569276,126.52041 Z" id="Fill-66" fill="#FFFFFF" mask="url(#mask-4)"></path>
                <path d="M408.854016,129.752671 L407.130836,127.39052 C406.956137,127.151181 406.648885,127.005387 406.318031,127.005028 L400.960726,127 C400.213249,126.999282 399.752582,127.695934 400.140756,128.240327 L401.825793,130.603375 C401.999228,130.846844 402.309219,130.99569 402.643656,130.99587 L408.039526,131 C408.791428,131.000718 409.251041,130.296884 408.854016,129.752671" id="Fill-67" fill="#FFFFFF" mask="url(#mask-4)"></path>
                <path d="M412.857186,137.78865 L411.085082,135.377632 C410.914386,135.145055 410.613606,135.003661 410.289944,135.003487 L404.939409,135 C404.208178,134.999651 403.758143,135.675936 404.137674,136.204376 L405.870196,138.616441 C406.040274,138.853027 406.343733,138.997385 406.670901,138.997559 L412.060605,139 C412.795958,139.000174 413.245581,138.316916 412.857186,137.78865" id="Fill-68" fill="#FFFFFF" mask="url(#mask-4)"></path>
                <path d="M417.039237,144.364867 C416.872102,144.138941 416.57775,144.001692 416.260818,144.001523 L410.918335,144 C410.203423,143.999831 409.763508,144.656118 410.134674,145.169064 L411.915098,147.629548 C412.081226,147.859198 412.3784,147.999492 412.698558,147.999492 L418.081565,148 C418.80071,148 419.24002,147.336944 418.860387,146.824167 L417.039237,144.364867 Z" id="Fill-69" fill="#FFFFFF" mask="url(#mask-4)"></path>
                <path d="M411.8788,130.6127 C412.053235,130.8509 412.35902,130.995688 412.687713,130.995868 L418.042007,131 C418.797749,131.000718 419.255272,130.286477 418.847347,129.742713 L417.077995,127.381193 C416.902509,127.147124 416.599876,127.00539 416.274336,127.005031 L410.958291,127 C410.206752,126.999103 409.748389,127.705978 410.147277,128.250281 L411.8788,130.6127 Z" id="Fill-70" fill="#FFFFFF" mask="url(#mask-4)"></path>
                <path d="M420.245295,135.003315 L414.936924,135 C414.201872,134.999477 413.753975,135.685739 414.144112,136.214305 L415.924189,138.625643 C416.094797,138.85713 416.39408,138.997558 416.715768,138.997732 L422.063399,139 C422.802357,139.000349 423.249432,138.307109 422.850868,137.779067 L421.031325,135.3686 C420.859895,135.1413 420.563489,135.003489 420.245295,135.003315" id="Fill-71" fill="#FFFFFF" mask="url(#mask-4)"></path>
                <path d="M427.760768,144.356094 C427.574301,144.135292 427.252058,144.001524 426.906145,144.001524 L421.017353,144 C420.219229,143.999661 419.732851,144.665792 420.156478,145.178682 L422.188859,147.638319 C422.374433,147.863015 422.699578,147.999492 423.049288,147.999492 L428.982966,148 C429.785556,148.000169 430.270818,147.327266 429.838035,146.814884 L427.760768,144.356094 Z" id="Fill-72" fill="#FFFFFF" mask="url(#mask-4)"></path>
                <path d="M421.931546,130.621872 C422.106779,130.854787 422.407989,130.995686 422.731417,130.995866 L428.044605,131 C428.804021,131.000539 429.259084,130.276452 428.840913,129.732983 L427.025273,127.372378 C426.849201,127.143416 426.550716,127.005392 426.230642,127.005033 L420.955603,127 C420.200588,126.999282 419.744058,127.71618 420.154055,128.260368 L421.931546,130.621872 Z" id="Fill-73" fill="#FFFFFF" mask="url(#mask-4)"></path>
                <path d="M433.200877,135.003316 L427.934488,135 C427.195791,134.999477 426.749991,135.695668 427.150494,136.223963 L428.977763,138.634539 C429.14932,138.860901 429.443855,138.997556 429.760322,138.997731 L435.06586,139 C435.808451,139.000349 436.253227,138.297351 435.844525,137.76958 L433.978312,135.360051 C433.805936,135.137528 433.51386,135.003491 433.200877,135.003316" id="Fill-74" fill="#FFFFFF" mask="url(#mask-4)"></path>
                <path d="M438.700736,144.347789 C438.513504,144.131628 438.196256,144.001694 437.856078,144.001694 L432.014271,144 C431.212581,143.999831 430.728584,144.675419 431.16338,145.18804 L433.249199,147.646959 C433.435763,147.866678 433.755904,147.999492 434.099645,147.999492 L439.985978,148 C440.79212,148 441.275004,147.317805 440.83108,146.805692 L438.700736,144.347789 Z" id="Fill-75" fill="#FFFFFF" mask="url(#mask-4)"></path>
                <path d="M432.983993,130.630838 C433.160026,130.858664 433.457109,130.995864 433.775308,130.996044 L439.046911,131 C439.810002,131.000719 440.262839,130.266532 439.834463,129.723488 L437.972938,127.363588 C437.796277,127.139538 437.502121,127.005215 437.187267,127.005036 L431.953506,127 C431.194177,126.999102 430.740295,127.726276 431.160518,128.270039 L432.983993,130.630838 Z" id="Fill-76" fill="#FFFFFF" mask="url(#mask-4)"></path>
                <path d="M437.156891,136.233335 L439.030838,138.643253 C439.202943,138.864495 439.493397,138.997555 439.8047,138.99773 L445.068636,139 C445.814495,139.000349 446.256818,138.287554 445.838205,137.760204 L443.925217,135.351334 C443.752294,135.133759 443.464293,135.003318 443.15667,135.003143 L437.93157,135 C437.189595,134.999476 436.746249,135.705287 437.156891,136.233335" id="Fill-77" fill="#FFFFFF" mask="url(#mask-4)"></path>
                <path d="M448.641069,144.339492 C448.453284,144.128136 448.140752,144.001525 447.806246,144.001525 L442.011321,144 C441.205798,143.999831 440.724571,144.684746 441.170284,145.197119 L443.30917,147.655254 C443.496289,147.870169 443.811706,147.999492 444.149763,147.999492 L449.98886,148 C450.798822,148 451.27894,147.308305 450.824127,146.79661 L448.641069,144.339492 Z" id="Fill-78" fill="#FFFFFF" mask="url(#mask-4)"></path>
                <path d="M453.374426,127.986863 C452.115685,126.335473 449.370642,125.002486 447.23541,125 C445.100178,124.997727 444.364292,126.327197 445.599338,127.979208 C446.841761,129.641356 449.605804,130.998136 451.765178,131 C453.924105,131.00186 454.641214,129.648597 453.374426,127.986863" id="Fill-79" fill="#FFFFFF" mask="url(#mask-4)"></path>
                <path d="M459.35666,137.984809 C458.081436,136.33349 455.331215,135.001401 453.205914,135 C451.080176,134.998402 450.365105,136.328692 451.616479,137.980411 C452.875511,139.642724 455.644988,140.999 457.795014,141 C459.944384,141.000799 460.639981,139.646522 459.35666,137.984809" id="Fill-80" fill="#FFFFFF" mask="url(#mask-4)"></path>
                <path d="M467.33809,147.977224 C466.046354,145.775519 463.29055,144.000773 461.17569,144 C459.060188,143.998971 458.366367,145.77346 459.633912,147.97568 C460.909807,150.192312 463.685306,152 465.825213,152 C467.964692,152 468.638604,150.193084 467.33809,147.977224" id="Fill-81" fill="#FFFFFF" mask="url(#mask-4)"></path>
                <polygon id="Fill-82" fill="#426F9E" mask="url(#mask-4)" points="320 167 261 167 264.679286 164 316.320714 164"></polygon>
                <polygon id="Fill-83" fill="#426F9E" mask="url(#mask-4)" points="320 176 261 176 264.679286 173 316.320714 173"></polygon>
                <polygon id="Fill-84" fill="#426F9E" mask="url(#mask-4)" points="320 185 261 185 264.679286 182 316.320714 182"></polygon>
                <path d="M448.707229,236 L371.292983,236 C366.712887,236 363,239.690063 363,244.241794 L363,303.757995 C363,308.309937 366.712887,312 371.292983,312 L448.707229,312 C453.287113,312 457,308.309937 457,303.757995 L457,244.241794 C457,239.690063 453.287113,236 448.707229,236" id="Fill-85" fill="#426F9E" mask="url(#mask-4)"></path>
                <g id="Group-89" mask="url(#mask-4)" fill="#4D7EAA">
                    <g transform="translate(381, 250)">
                        <polygon id="Fill-86" points="59 3.52965197 0 3.52965197 3.67928587 0 55.3209282 0"></polygon>
                        <polygon id="Fill-87" points="59 11.764826 0 11.764826 3.67928587 8.23517402 55.3209282 8.23517402"></polygon>
                        <polygon id="Fill-88" points="59 20 0 20 3.67928587 16.470348 55.3209282 16.470348"></polygon>
                    </g>
                </g>
                <polygon id="Fill-90" fill="#4D7EAA" mask="url(#mask-4)" points="376 298 386 298 386 288 376 288"></polygon>
                <polygon id="Fill-91" fill="#4D7EAA" mask="url(#mask-4)" points="405 298 415 298 415 288 405 288"></polygon>
                <polygon id="Fill-92" fill="#4D7EAA" mask="url(#mask-4)" points="435 298 445 298 445 288 435 288"></polygon>
                <path d="M453.600022,98 L277.399978,98 C275.522309,98 274,96.4529744 274,94.5448183 L274,89.4551817 C274,87.5470256 275.522309,86 277.399978,86 L453.600022,86 C455.477903,86 457,87.5470256 457,89.4551817 L457,94.5448183 C457,96.4529744 455.477903,98 453.600022,98" id="Fill-93" fill="#426F9E" mask="url(#mask-4)"></path>
                <path d="M487,147.496603 L487,329.47913 C487,339.159859 479.137178,347 469.428493,347 L263.571294,347 C253.862609,347 246,339.159859 246,329.47913 L246,288.447616 C257.738068,290.420403 273.646806,295.118366 294.461149,303.070515 C521.938178,389.933102 476.312326,120.752388 476.312326,120.752388 L476.312326,120 C482.951251,127.250345 487,136.900681 487,147.496603" id="Fill-94" fill-opacity="0.0775726959" fill="#07276E" mask="url(#mask-4)"></path>
                <path d="M345.714286,145 C347.841857,134.449412 349.003189,125.822492 348.70755,118.222451 C348.497666,112.648263 347.934687,107.531701 347.476757,102.387022 L380.505567,83.8820005 L391,78 L370.888833,78 C370.888833,78 342.20092,87.103221 337.335419,95.0394 C334.063238,100.379844 334.740485,112.414728 336.27635,123.329571 C337.898398,134.776108 340.474466,145 340.474466,145 L345.714286,145 Z" id="Fill-95" fill="#F1C3C4" mask="url(#mask-4)"></path>
                <path d="M370.332742,137.620363 C367.009819,132.038291 360.048133,112.2293 359.70071,107.570848 C371.183587,103.338468 386.956963,106.156334 395.477996,96.9381679 C401.284523,90.6561374 398.345301,83.7205113 397.549942,76.8308193 C392.762422,76.4468185 385.863264,75.4736157 381.664528,76.3652532 C365.843776,79.7250995 345.858219,92.9564934 344.120679,103.419175 C342.437129,113.556453 358.806758,137.679176 365.89478,140.935134 C368.3293,141.404349 369.461198,139.228272 370.332742,137.620363" id="Fill-96" fill="#F1CCCD" mask="url(#mask-4)"></path>
                <path d="M368.714755,137 C370.720952,138.044279 373.232722,138.520339 375.411676,139.20517 C377.726431,140.802623 379.91604,142.631209 382,144.477558 C381.577177,144.870443 381.156169,145.266254 380.733346,145.658929 C378.184621,144.598976 375.673531,143.41259 373.146798,142.335291 C373.982241,143.759081 374.978424,145.737297 375.815454,147.037579 C376.652938,148.338278 376.595806,149.980035 376.020631,150.950126 C374.504138,153.507638 368.968222,160.169961 366.089174,158.821823 C363.210127,157.473476 368.437483,150.949499 367.378046,148.29272 C366.318836,145.63615 365.198186,142.846878 364,140.227298 C365.535084,139.062227 367.07833,138.017739 368.714755,137" id="Fill-97" fill="#13325B" mask="url(#mask-4)"></path>
                <path d="M397.910882,76.8158671 C397.910882,76.8158671 403.320947,88.4746947 396.728933,96.7764747 C390.801897,104.2411 360.517763,107 360.517763,107 C358.251271,100.683405 343.48133,99.3810952 339,93.783627 C340.736871,91.0040725 351.199211,81.5401403 370.584152,76 L397.910882,76.8158671 Z" id="Fill-98" fill="#13325B" mask="url(#mask-4)"></path>
                <path d="M345.356497,144.205567 L347,149.420666 L345.971067,157.527029 L344.316742,157.605177 L342.808098,150.508676 L340.136911,155.220762 C339.417657,156.4893 338.338152,157.527231 336.858021,157.713412 C332.95457,158.204511 325.326857,158.331931 325.010935,155.846954 C324.685856,153.29332 331.695251,153.208913 334.497553,150.999977 C337.412862,148.701788 340.083009,144 340.083009,144 L345.356497,144.205567 Z" id="Fill-99" fill="#13325B" mask="url(#mask-4)"></path>
                <path d="M379.437633,24.1155729 C379.437633,24.1155729 374.35933,19.8715119 377.600291,14.603389 C380.776549,9.43990553 388.931252,10.5269211 390.39871,13.4961687 C393.295237,13.0182732 395.500953,14.399002 396.817007,16.7170186 C397.666123,18.2125955 399.396706,21.7554453 399.282182,27.449144 C399.180599,32.500757 403.551269,34.1847698 405.162152,38.8365414 C406.985907,44.1031754 404.168102,45.0079229 407.881177,52.1061707 C410.943127,57.9595933 407.169663,61.567949 403.185268,60.9265014 C398.278642,60.136602 373.098921,52.2665327 373.098921,52.2665327 C372.354408,52.2648312 368.919554,44.4402757 372.854991,40.5594749 C379.034966,34.4652968 375.61974,28.1305758 379.437633,24.1155729" id="Fill-100" fill="#13325B" mask="url(#mask-4)"></path>
                <path d="M377.269031,56.3273513 C373.838986,60.3598322 367.708355,65.0341613 364.196545,69 C362.465576,67.5399099 360.449502,66.8166333 359,64.9562732 C364.899036,56.2525871 371.462248,47.4645568 379,40 C377.594591,45.6793775 378.909032,50.7306518 377.269031,56.3273513" id="Fill-101" fill="#FFBC47" mask="url(#mask-4)"></path>
                <path d="M370,77.334006 C378.062607,76.2913464 384.680244,79.5393928 392.895189,78.9210136 C393.883999,78.8471896 394.901226,78.7179977 395.937682,78.5243135 C397.848855,78.1551937 399.179946,76.4572429 398.980176,74.5749395 L396.270562,48.9225681 L393.883999,41.032737 L393.332761,39.2242576 L389.059383,37 L384.359756,37.1573943 C377.352194,40.1103524 372.519885,48.1013803 376.769761,56.9318447 C380.896356,65.5134642 370,77.334006 370,77.334006" id="Fill-102" fill="#FFBC47" mask="url(#mask-4)"></path>
                <path d="M383,35.7865631 C383,38.7378123 384.997236,38.7378123 387,35.7865631 L386.529757,32.2191269 L386.239181,30 L383.227175,32.0666805 L383.005355,35.7069022 L383,35.7865631 Z" id="Fill-103" fill="#F1CCCD" mask="url(#mask-4)"></path>
                <path d="M390.940932,54.1778795 C392.710985,59.3995446 394.507484,71.859426 393.232028,79 C394.166111,78.9220614 395.127447,78.7858879 396.106548,78.5811897 C397.912333,78.1917157 399.170023,76.3991287 398.981269,74.4116952 L396.421071,47.3295751 L394.166111,39 C392.181059,40.6951639 391.041063,42.7973159 391.041063,42.7973159 C391.041063,42.7973159 388.766924,47.8162533 390.940932,54.1778795" id="Fill-104" fill="#EBA52A" mask="url(#mask-4)"></path>
                <path d="M366.658587,67.8067374 C368.869503,71.0119078 370.221759,70.434775 373.184885,70.6054733 C376.975752,70.8953025 381.170551,71.1659782 385.073168,70.8753071 C389.781882,70.5248599 396.720283,71.7685789 400.551786,68.7875684 C404.383069,65.8065578 399.528153,51.0957772 398.396525,47.7866303 C396.89365,43.392676 395.210341,41.4773194 392.995008,38 C393.988386,41.3682914 394.981542,44.5848276 395.975803,47.893764 C395.351684,53.0170272 394.82761,58.168705 394.272176,63.2911263 C390.465629,63.7809104 387.61381,63.8366872 383.595248,64.4872771 C380.047978,65.0616736 375.19792,66.1168035 371.504889,67.0782704 C368.24693,65.3900204 364.44745,64.601567 366.658587,67.8067374" id="Fill-105" fill="#F1CCCD" mask="url(#mask-4)"></path>
                <path d="M384,63.933664 C384.382449,65.9509595 385.07988,68.6404103 385.615989,70.7358924 C390.415218,70.9553124 396.190255,71.8775817 400.664925,68.2071699 C405.139807,64.5371728 402.127253,49.6690808 400.319933,45.6025515 C398.378959,41.2367565 396.760842,39.8453681 393.178765,38 C386.324913,44.7147092 393.043195,53.4543874 393.921954,62.3568677 C390.527377,62.7776648 387.377551,63.3985944 384,63.933664" id="Fill-106" fill="#FFBC47" mask="url(#mask-4)"></path>
                <path d="M383,34.7352344 C383.262505,34.8999469 383.922569,35.0467474 384.285914,34.9860023 C385.732893,34.7439957 386.37595,34.096633 387,32.8223505 L386.663465,31 L383.17507,32.6971613 L383,34.7352344 Z" id="Fill-107" fill="#E3AFB0" mask="url(#mask-4)"></path>
                <path d="M378.620549,18.0931841 C383.389446,17.1749338 382.663586,23.3297504 387.48019,23.9844546 C387.48019,23.9844546 389.226917,21.7909396 390.53017,23.1154991 C392.102974,24.713848 389.222852,27.1233215 389.222852,27.1233215 C388.967421,31.333018 385.930918,34.6726922 382.784242,33.8839742 C375.628542,32.0903665 378.620549,18.0931841 378.620549,18.0931841" id="Fill-108" fill="#F1CCCD" mask="url(#mask-4)"></path>
                <path d="M379.888537,81.3630614 L374.262589,65.5709292 C373.686317,64.6012972 372.593409,64 371.407156,64 L346.270275,64 C343.906413,64 342.325175,66.2746651 343.285197,68.2945467 L349.822333,82.0476027 C350.386721,83.2350433 351.646007,84 353.035586,84 L377.85527,84 C379.317882,84 380.350721,82.6606187 379.888537,81.3630614" id="Fill-109" fill="#C8CBE3" mask="url(#mask-4)"></path>
                <path d="M361.41419,75.414157 C362.19527,74.6332141 362.19527,73.3667859 361.41419,72.585843 C360.633291,71.804719 359.366754,71.804719 358.585674,72.585843 C357.804775,73.3667859 357.804775,74.6332141 358.585674,75.414157 C359.366754,76.195281 360.633291,76.195281 361.41419,75.414157" id="Fill-110" fill="#FFFFFF" mask="url(#mask-4)"></path>
                <path d="M467.565781,201.845098 C467.565781,201.845098 480.967052,220.050492 486.935436,218.952236 C489.63725,218.454817 492.458887,216.495708 494.921055,214.153486 C499.085009,210.193188 502.220805,205.144473 501.987816,204.274828 L499.698511,187 C497.395678,189.574392 485.377309,206.483275 484.458881,207.994372 C480.698632,205.814398 471.862227,199.700294 471.406342,199.161215 C471.406342,199.161215 470.224218,194.194356 468.699375,193.353183 C467.34632,192.610195 468.852482,196.415363 468.295026,196.12918 C467.68496,195.812432 462.944438,191.644248 462.233231,193.840971 C460.659428,198.731416 467.565781,201.845098 467.565781,201.845098" id="Fill-111" fill="#F9CBCB" mask="url(#mask-4)"></path>
                <path d="M486,204.702208 C488.255279,208.445212 493.078543,212.657092 494.495435,215 C498.592716,211.012017 504.222463,207.641543 503.993216,206.765983 L499.271159,187 C497.005315,189.592526 490.06263,198.629157 486,204.702208" id="Fill-112" fill="#ADB2FF" mask="url(#mask-4)"></path>
                <path d="M498.408227,290.804233 C499.369611,295.662688 499.901665,300.008691 500.104478,304.037241 C500.629728,314.328781 499.623566,330.098244 497.448598,340 L492.659893,339.278803 C492.659893,339.278803 487.100105,312.028989 484.520828,298.104816 C483.855761,294.571798 483.358387,291.419471 483.133405,289.048193 C481.810294,275.511902 490.751171,237.704275 491.326246,235.256648 L491.349732,235.162744 L491.357414,235.127848 L510.85706,233 C519.916245,260.17135 507.403758,266.374911 498.408227,290.804233" id="Fill-113" fill="#F9CBCB" mask="url(#mask-4)"></path>
                <path d="M508.568264,269.526263 C505.566704,275.598834 502.59137,282.223476 499.280999,291.32103 C501.480482,297.106797 501.582763,327.825757 499.6545,336.611132 C496.114871,337.165549 492.719484,337.092408 489.418293,336.611132 C488.756524,333.049004 483.355071,294.627701 483.131058,292.236885 C481.813641,278.58906 490.848918,237.742823 491.4213,235.275242 L491.444903,235.180564 L491.452552,235.14538 L510.868062,233 C516.562809,250.28224 513.702869,259.145873 508.568264,269.526263" id="Fill-114" fill="#523631" mask="url(#mask-4)"></path>
                <path d="M523.432792,344 L531.516429,330.955468 C531.516429,330.955468 523.187393,316.049014 516.447972,306.138094 C514.848237,303.76609 513.338313,301.692718 512.04849,300.157139 C502.819444,289.203458 498,234 498,234 L513.25841,234 C525.220372,246.600527 522.207692,263.949753 522.560823,281.089446 C522.68289,287.029902 524.3503,292.757841 527.150258,297.759769 C527.714002,298.767146 528.245279,299.787952 528.746408,300.833484 C532.236394,308.131959 534.306057,316.690828 536.215914,330.749346 L540,336.007488 L523.432792,344 Z" id="Fill-115" fill="#F9CBCB" mask="url(#mask-4)"></path>
                <path d="M538,325.917628 C534.999162,328.093369 531.585708,329.297691 527.960184,330 C526.370285,327.6445 510.321039,298.19705 508.724434,295.61394 C501.23135,283.490474 497,235 497,235 L512.653395,235.204743 L513.299455,235.216177 C524.791702,247.313599 522.378667,263.817977 522.521165,280.281278 C522.579003,286.999481 525.199916,291.095827 528.028919,296.86209 C536.021584,313.15262 537.597653,325.076212 538,325.917628" id="Fill-116" fill="#66443D" mask="url(#mask-4)"></path>
                <path d="M519.991804,202.223188 C519.862374,211.815819 517.500286,228.447714 516.603735,234.430521 C516.474095,235.297762 515.995668,236.045586 515.318054,236.514422 C514.949306,236.773438 514.510801,236.952983 514.04246,237.022783 C509.747544,237.661072 505.542136,238.010281 501.446617,238 C497.759347,238 494.162006,237.720991 490.664258,237.112766 C489.298735,236.873302 488.252583,235.776269 488.102983,234.400457 C487.61468,229.873564 489.033992,219.942235 488.804759,210.280014 C488.655369,204.1677 490.572018,188.522462 501.979043,186.060759 L508.66147,186 C516.155144,187.944512 519.294229,193.677974 519.812367,197.686204 C519.971843,198.87322 520.02164,200.428367 519.991804,202.223188" id="Fill-117" fill="#FFCA38" mask="url(#mask-4)"></path>
                <path d="M491.989745,339 C484.672079,342.046447 476.604618,341.613014 476,349 L498.900096,348.411173 C499.212421,345.281036 498.792397,342.169735 497.640672,339.076841 L491.989745,339 Z" id="Fill-118" fill="#13325B" mask="url(#mask-4)"></path>
                <path d="M529.769187,331.904148 C524.103334,338.089371 516.158193,341.870955 518.383317,349 L540,337.444159 C539.25976,333.817417 537.546331,331.387066 535.058975,330 L529.769187,331.904148 Z" id="Fill-119" fill="#173E70" mask="url(#mask-4)"></path>
                <path d="M504.245037,179.470174 C507.384193,180.422836 508.652592,181.961851 512.66767,180.181322 C518.776602,177.471943 523.93337,167.093216 515.820905,162.399637 C515.259699,160.756662 514.694812,160.116947 512.556772,159.660919 C510.419382,159.205529 508.227843,160.11886 505.280593,160.069112 C502.333992,160.019363 498.165346,157.04147 495.596276,161.247769 C493.027206,165.453642 499.397572,168.724499 502.589795,170.795652 C505.7831,172.866593 504.747112,176.439768 504.245037,179.470174" id="Fill-120" fill="#13325B" mask="url(#mask-4)"></path>
                <path d="M510,186.672945 C507.12997,189.490443 504.422617,190.030147 502,186.722886 L502.682129,181.288076 L502.966866,179 L509.318085,179 L509.440359,180.418716 L510,186.672945 Z" id="Fill-121" fill="#F9CBCB" mask="url(#mask-4)"></path>
                <path d="M510,181.773261 C508.223298,183.888057 503.327566,184.500355 502,183.593637 L502.569406,179.001646 L509.800115,176 L510,181.773261 Z" id="Fill-122" fill="#F0B4B4" mask="url(#mask-4)"></path>
                <path d="M498.528,165.060073 C497.10628,169.237849 495.712796,178.47394 499.11363,181.908461 C501.266686,184.082505 509.079249,183.241962 510.674481,177.262443 C512.558756,175.839743 513.941894,172.372193 512.205697,170.798281 C510.967619,169.677107 509.386613,172.640466 507.227737,172.14998 C506.408674,171.964391 508.924705,166.258762 506.368152,165.270377 C503.810953,164.282216 501.105676,166.42413 498.528,165.060073" id="Fill-123" fill="#F9CBCB" mask="url(#mask-4)"></path>
                <path d="M500.914779,148.959034 L458.697479,222 L449,216.457146 L491.217089,143.415969 C491.703085,142.575096 494.143866,143.049759 496.724623,144.472904 C496.808905,144.516285 496.894457,144.565141 496.976621,144.612102 C497.058573,144.659063 497.144126,144.707919 497.224172,144.75846 C499.759823,146.259733 501.400775,148.118161 500.914779,148.959034" id="Fill-124" fill="#FFE46D" mask="url(#mask-4)"></path>
                <path d="M500.913648,147.605927 C500.402531,148.427086 497.787295,147.9229 495.075715,146.48404 C492.364349,145.045179 490.576084,143.212479 491.087201,142.391321 C491.579649,141.600274 494.052837,142.04681 496.667859,143.385626 C496.753259,143.426436 496.839947,143.472398 496.923202,143.516576 C497.006243,143.560754 497.092931,143.606715 497.17404,143.654261 C499.743357,145.066575 501.406096,146.814881 500.913648,147.605927" id="Fill-125" fill="#FFD61F" mask="url(#mask-4)"></path>
                <path d="M469.99401,137.313602 L459.551848,204 L451,202.580463 L461.442369,135.894066 C461.562484,135.126387 463.461246,134.793352 465.722619,135.132327 C465.795553,135.141024 465.871166,135.153539 465.943482,135.16563 C466.015798,135.177509 466.091205,135.190237 466.163109,135.205298 C468.413563,135.615546 470.114125,136.545924 469.99401,137.313602" id="Fill-126" fill="#FFA727" mask="url(#mask-4)"></path>
                <path d="M470.993705,137.161508 C470.862491,137.906068 468.742706,138.211264 466.26284,137.845227 C463.782974,137.479189 461.875168,136.579851 462.006383,135.83529 C462.132617,135.118079 464.128116,134.806937 466.504699,135.123628 C466.581349,135.131753 466.660814,135.143446 466.736815,135.154742 C466.812815,135.16584 466.892063,135.177731 466.967631,135.191802 C469.332738,135.575081 471.11994,136.444296 470.993705,137.161508" id="Fill-127" fill="#FF9406" mask="url(#mask-4)"></path>
                <path d="M464.492497,145.577546 L485,209.309802 L476.530567,212 L456.023276,148.267745 C455.787045,147.533997 457.375103,146.364035 459.598469,145.620411 C459.669106,145.594566 459.743972,145.570822 459.815455,145.548129 C459.887149,145.525226 459.962016,145.501482 460.034556,145.48194 C462.279705,144.806186 464.256477,144.843798 464.492497,145.577546" id="Fill-128" fill="#A8D0E3" mask="url(#mask-4)"></path>
                <path d="M463.975154,145.600344 C464.234198,146.392104 462.438097,147.658921 459.968347,148.430587 C457.498596,149.202253 455.28342,149.188274 455.024599,148.396732 C454.774942,147.634021 456.453255,146.417877 458.802982,145.644901 C458.877633,145.618035 458.956755,145.593354 459.0323,145.569765 C459.108069,145.545958 459.18719,145.521277 459.263853,145.500964 C461.636602,144.798536 463.72572,144.837633 463.975154,145.600344" id="Fill-129" fill="#39A1CF" mask="url(#mask-4)"></path>
                <path d="M436.51989,148.311833 L470,204.59109 L462.549862,209 L429.069752,152.720743 C428.684187,152.072748 429.935092,150.611737 431.882481,149.418621 C431.943942,149.378744 432.009656,149.339716 432.072818,149.302385 C432.135767,149.265053 432.201481,149.226237 432.266132,149.191664 C434.249461,148.058574 436.134538,147.663838 436.51989,148.311833" id="Fill-130" fill="#A8D0E3" mask="url(#mask-4)"></path>
                <path d="M436.925803,148.24775 C437.347422,148.782127 435.929249,149.999179 433.762429,150.965642 C431.595833,151.932273 429.495136,152.284817 429.073517,151.750608 C428.66714,151.235779 429.985567,150.075013 432.038073,149.127087 C432.102851,149.095406 432.172113,149.064398 432.238684,149.034738 C432.305031,149.005079 432.374292,148.97424 432.442433,148.946771 C434.532819,148.046537 436.51965,147.732921 436.925803,148.24775" id="Fill-131" fill="#39A1CF" mask="url(#mask-4)"></path>
                <path d="M491,180.838723 L491,219.161277 C491,221.280482 489.282791,223 487.166165,223 L438.826108,223 C436.709483,223 435,221.280482 435,219.161277 L435,180.838723 C435,178.719518 436.709483,177 438.826108,177 L487.166165,177 C489.282791,177 491,178.719518 491,180.838723" id="Fill-132" fill="#B9B9B9" mask="url(#mask-4)"></path>
                <path d="M490,180.838723 L490,219.161277 C490,221.280482 488.314159,223 486.236199,223 L471,223 L471,177 L486.236199,177 C488.314159,177 490,178.719518 490,180.838723" id="Fill-133" fill="#A0A0A0" mask="url(#mask-4)"></path>
                <path d="M514.339902,206.825673 C514.339902,206.825673 508.932957,214.403638 503.813917,218.743944 C502.588258,219.773816 501.388619,220.617175 500.279095,221.137621 C492.593025,224.732502 474.095392,223.868558 474.095392,223.868558 C468.569139,227.222242 461.140512,226.091733 459.524775,224.071704 C456.662436,220.456654 466.408687,223.301328 467.13194,220.944455 C467.13194,220.944455 462.594422,218.967676 463.672003,217.173666 C464.740277,215.370092 472.691405,219.310343 472.691405,219.310343 C480.090416,215.598605 487.657601,213.272922 494.906842,212.200841 C495.424479,211.347501 495.941904,210.494577 496.479214,209.651633 C500.374711,203.59841 505.009326,198.001174 511.613795,194 C515.307272,198.023838 515.568311,202.362689 514.339902,206.825673" id="Fill-134" fill="#F9CBCB" mask="url(#mask-4)"></path>
                <path d="M506.028105,218 L496,207.699912 C499.782129,201.232559 506.898266,187.160163 512.964131,191.989961 C521.040792,198.41999 510.9979,213.362594 506.028105,218" id="Fill-135" fill="#FEBE10" mask="url(#mask-4)"></path>
                <path d="M242.109627,349.9186 C242.265161,351.942266 239.985427,354.063028 239.861902,356.143458 C248.526695,357.982747 257.264529,359.48017 266,361 C264.514693,353.986631 255.761176,354.3827 249.989231,352.122801 C249.989231,317.186131 264.807071,276.569837 256.64626,242.116516 C253.919258,242.055697 253.722907,242.866188 250.520066,242.735587 C247.317224,242.604987 241.837012,242.226417 238.158976,242 C237.07346,273.885914 241.8948,347.120935 242.109627,349.9186" id="Fill-136" fill="#D19479" mask="url(#mask-4)"></path>
                <path d="M192.096779,317.851766 C190.174913,317.17996 187.935887,319.278874 186,318.784949 C187.735564,326.763557 190.290688,331.664583 193.924539,339 C196.143384,334.445768 195.423029,329.955385 196.257459,325.089807 C237.76548,322.81835 256.943993,280.763185 250.912855,242.843495 C245.820876,242.683978 240.72826,242.240449 235.6554,242 C222.189802,261.48452 232.509929,308.972647 192.096779,317.851766" id="Fill-137" fill="#D19479" mask="url(#mask-4)"></path>
                <path d="M260.336499,353.432244 C262.46751,354.504455 269.437535,356.044819 267.734733,360.211438 C266.031504,364.377836 245.298603,360.251149 241.650931,358.059295 C238.003045,355.867441 241.378551,351.537344 242.484721,349 C245.762033,355.766177 255.365564,359.408604 261.736609,356.581366 C264.132102,355.518422 260.752114,353.873042 260.336499,353.432244" id="Fill-138" fill="#173E70" mask="url(#mask-4)"></path>
                <path d="M195.812168,333.077389 C195.695564,334.597406 197.193874,342.717639 193.290279,341.948796 C189.386685,341.180173 182.610927,321.006038 184.251471,317.17198 C186.125454,312.792377 190.715052,316.292702 192.226754,316.878446 C186.627431,320.6098 189.570251,332.11904 193.960351,334.953226 C195.487523,335.938741 195.847496,333.774008 195.812168,333.077389" id="Fill-139" fill="#173E70" mask="url(#mask-4)"></path>
                <path d="M211,293.735823 C211,293.735823 215.865262,299.01403 220.437686,297.921647 C220.437686,297.921647 225.503087,305.457599 233.45992,300.25321 C239.489488,303.915597 245.511153,303.915597 251.540507,300.25321 C259.489864,305.457599 264.563168,297.921647 264.563168,297.921647 C269.135378,299.01403 274,293.735823 274,293.735823 C269.634122,273.563338 260.19729,256.333093 257.909476,242 L236.009815,242.711338 C229.24121,249.326031 224.90673,276.933178 211,293.735823" id="Fill-140" fill="#173E70" mask="url(#mask-4)"></path>
                <path d="M248.639408,186.174154 C250.532005,182.326988 251.237884,175.837359 245.2758,173.387896 C240.93895,171.606333 237.351748,171.207264 233.264506,174.198029 C229.177264,177.188793 227.417832,184.002518 228.111736,188.950496 C228.943554,194.879973 222.06583,199.771186 224.540018,204.642692 C227.863367,211.18673 246.911977,206.280094 253,205.528226 C249.236896,198.677657 244.259822,195.077687 248.639408,186.174154" id="Fill-141" fill="#13325B" mask="url(#mask-4)"></path>
                <path d="M249.921597,218 C259.944074,216.148751 269.819917,212.76893 275.576154,204.092716 C279.658888,197.939028 281.980735,188.484116 284.415542,182.473933 C285.859077,178.910169 285.283837,179.407872 286.393609,176.45898 C289.670495,175.340184 297.029263,170.949611 292.640686,167.550297 C286.625069,162.891171 282.467313,169.879756 280.680424,173.465501 C278.893748,177.051247 279.405689,175.86775 277.50925,178.53938 C273.827202,183.726901 270.954412,190.130062 265.646176,194.683426 C261.02486,198.647426 252.845113,199.974635 247,201.998629 C247.855294,207.319493 248.983609,212.636209 249.921597,218" id="Fill-142" fill="#F9CBCB" mask="url(#mask-4)"></path>
                <path d="M249.951676,218 C260.184425,215.882935 269.934455,212.823089 275.919014,203.509636 C280.163758,196.903937 281.977456,188.128295 285,180.814973 C282.628406,179.484419 280.291708,178.252097 278.012306,177 C273.760023,182.555227 271.382614,189.065057 265.870435,193.813568 C261.071242,197.947961 252.993391,199.287543 247,201.400954 C247.873677,206.922649 249.015747,212.410381 249.951676,218" id="Fill-143" fill="#65C1D9" mask="url(#mask-4)"></path>
                <path d="M245.43553,200.268133 C263.757053,205.734562 255.785499,230.929526 259,240.985004 C253.969949,245.382632 242.915289,241.238899 235.861055,241.055051 C237.637986,226.432822 224.28903,211.586777 238.975456,200.327873 C241.127926,200.277599 243.38205,199.655376 245.43553,200.268133" id="Fill-144" fill="#6BCCE5" mask="url(#mask-4)"></path>
                <path d="M238.219656,201.443695 C240.070545,202.634308 244.954355,206.639917 243.83533,201.273576 C243.77872,201.002442 243.518351,200.088025 243.250227,199.501962 C242.65795,198.208133 242.401459,196.043682 241.653697,194.750074 C240.905742,193.456905 239.022865,192.969436 238,192 C238.011438,193.824213 238.095772,196.591232 238.130475,198.166979 C238.165566,199.742725 238.184565,200.093527 238.219656,201.443695" id="Fill-145" fill="#D19479" mask="url(#mask-4)"></path>
                <path d="M238.154894,197.647696 C238.638691,197.936032 239.294518,198.267444 239.793694,198.426781 C241.24025,198.889044 242.493683,199.094932 244,198.958523 C243.170603,197.446672 243.040316,195.333138 242.149621,193.923421 C241.259145,192.51324 239.18796,192.092201 238,191 C238.021971,193.240448 238.102384,195.423692 238.154894,197.647696" id="Fill-146" fill="#BD8667" mask="url(#mask-4)"></path>
                <path d="M248.749286,195.423913 C251.929231,194.095836 251.488822,183.459541 248.991365,180 C246.223913,183.369261 241.489828,183.140055 237.711143,181.786063 C238.00343,182.669536 237.784892,185.530678 238.408215,186.660987 C237.822808,185.599291 234.703695,185.025108 235.022856,187.088385 C235.313685,188.970251 237.372816,190.078894 238.96758,190.692587 C240.269849,194.682339 244.514359,197.192982 248.749286,195.423913" id="Fill-147" fill="#D19479" mask="url(#mask-4)"></path>
                <path d="M251,184.619839 C251,184.619839 250.717847,181.703592 248.76139,180.323984 C248.76139,180.323984 247.779097,183.539771 245.003776,184.505328 C245.003776,184.505328 244.97832,182.978792 244.218712,182.353822 C244.218712,182.353822 243.661894,184.740455 241.23675,186.484857 C238.971615,188.114327 240.903258,192.106433 241.672707,193 C241.672707,193 237.654974,190.515064 238.255858,186.095224 C238.255858,186.095224 235.056774,183.220234 235.004793,183.079832 C234.953026,182.93964 235.337643,179.789317 235.337643,179.789317 C235.337643,179.789317 243.089246,178.064492 243.106359,177.981766 C243.1239,177.89925 246.275709,177 246.275709,177 L248.668765,177.297435 L250.450241,177.991659 L251,184.619839 Z" id="Fill-148" fill="#13325B" mask="url(#mask-4)"></path>
                <path d="M277,142 L297,142 L297,138.490038 C297,138.219483 296.737818,138 296.414157,138 L277.585843,138 C277.262182,138 277,138.219483 277,138.490038 L277,142 Z" id="Fill-149" fill="#06ABE7" mask="url(#mask-4)"></path>
                <path d="M278,157 L294,157 L287.589367,106.397222 L287.589155,106.396798 C287.352897,104.534118 284.646465,104.534542 284.410845,106.397222 L278,157 Z" id="Fill-150" fill="#06ABE7" mask="url(#mask-4)"></path>
                <path d="M264,157.744563 L264,225.966662 C264,231.046572 265.954247,235.669219 269.160438,239.136151 C270.865667,240.983933 273.305317,242 275.82826,242 L299.17174,242 C301.694683,242 304.12791,240.983933 305.833139,239.136151 C309.039329,235.669219 311,231.046572 311,225.966662 L311,157.744563 C311,148.492882 303.457295,141 294.158187,141 L280.835389,141 C271.536281,141 264,148.492882 264,157.744563" id="Fill-151" fill="#FFFFFF" mask="url(#mask-4)"></path>
                <path d="M298.241221,237 C299.373967,237 300.436494,236.555153 301.155903,235.778697 C303.635708,233.108122 305,229.646376 305,226.02725 L305,157.684591 C305,151.24156 299.70567,146 293.198038,146 L279.795715,146 C273.29153,146 268,151.24156 268,157.684591 L268,226.02725 C268,229.650641 269.361707,233.1126 271.83462,235.776138 C272.556829,236.555153 273.62151,237 274.758779,237 L298.241221,237 Z" id="Fill-152" fill="#A8D0E3" mask="url(#mask-4)"></path>
                <polygon id="Fill-153" fill="#FFFFFF" mask="url(#mask-4)" points="264 203 311 203 311 176 264 176"></polygon>
                <path d="M294,190.5 C294,192.985296 296.014704,195 298.5,195 C300.985296,195 303,192.985296 303,190.5 C303,188.014704 300.985296,186 298.5,186 C296.014704,186 294,188.014704 294,190.5" id="Fill-154" fill="#06ABE7" mask="url(#mask-4)"></path>
                <path d="M290.255101,186 L269.744899,186 C269.333485,186 269,185.776268 269,185.500073 C269,185.224025 269.333485,185 269.744899,185 L290.255101,185 C290.666515,185 291,185.224025 291,185.500073 C291,185.776268 290.666515,186 290.255101,186" id="Fill-155" fill="#06ABE7" mask="url(#mask-4)"></path>
                <path d="M269.744899,189 L290.255101,189 C290.666515,189 291,189.223732 291,189.500073 C291,189.776122 290.666515,190 290.255101,190 L269.744899,190 C269.333485,190 269,189.776122 269,189.500073 C269,189.223732 269.333485,189 269.744899,189" id="Fill-156" fill="#06ABE7" mask="url(#mask-4)"></path>
                <path d="M269.744899,195 L290.255101,195 C290.666515,195 291,195.223878 291,195.499927 C291,195.776268 290.666515,196 290.255101,196 L269.744899,196 C269.333485,196 269,195.776268 269,195.499927 C269,195.223878 269.333485,195 269.744899,195" id="Fill-157" fill="#06ABE7" mask="url(#mask-4)"></path>
                <path d="M267,195 L267,226.236369 C267,229.786731 268.387468,233.187314 270.906805,235.795697 C271.64003,236.563213 272.726265,237 273.884463,237 L297.803798,237 C298.955633,237 300.035286,236.563213 300.768292,235.801763 C301.658386,234.878192 302.404337,233.861322 303,232.775629 C282.594968,231.165708 272.248419,212.845738 267,195" id="Fill-158" fill="#F2F3F4" mask="url(#mask-4)"></path>
                <path d="M242.213039,223.942284 C252.083437,227.033272 261.323247,230.478573 271.606715,225.454601 C279.805852,221.448694 283.605587,208.321245 285.770954,200.459366 C286.796486,196.736101 286.551032,196.548523 287.319808,193.427548 C290.748697,190.905673 295.710446,186.631373 291.191623,182.491056 C285.493299,177.270362 282.253352,187.181983 281.577555,190.425032 C280.480583,195.689325 271.370431,210.722961 268.466357,211.503045 C257.708188,214.393057 251.041698,208.62792 242,205.946327 C242.173161,211.842258 242.381082,217.863028 242.213039,223.942284" id="Fill-159" fill="#D19479" mask="url(#mask-4)"></path>
                <path d="M240.087855,225.519519 C249.954817,228.440714 260.900023,231.345798 271.212438,226.084638 C279.434694,221.889912 284.555087,210.541958 287,201.873973 C284.815324,199.581913 281.044645,197.920048 278.651017,196 C277.312111,199.838188 270.960042,211.525511 268.060775,212.268475 C257.419461,214.994866 250.831103,208.0481 240.949095,206.517233 C239.389158,211.628317 240.265232,219.432089 240.087855,225.519519" id="Fill-160" fill="#6BCCE5" mask="url(#mask-4)"></path>
            </g>
        </g>
    </g>
</svg>