<svg id="Layer_1" data-name="Layer 1" xmlns="http://www.w3.org/2000/svg" viewBox="0 0 1000 1000"><defs><style>.cls-1{fill:#0c50a1;}</style></defs><path class="cls-1" d="M684.37,309.59l22-11.66,8.12,14.23L657.41,343,650,328.87l22.87-13.16c-10.53-13.09-19.94-26.29-30.86-38.09-34-36.73-76.53-57.3-125.69-64.87-38.66-6-77-5.44-114.33,7.43-53.85,18.58-92.84,54.94-120.56,103.88-19.42,34.27-30.22,71.51-36.1,110.31a409.87,409.87,0,0,0-4.14,78.09c2.92,71.64,21.9,138.17,64.67,196.61,26.45,36.13,59.92,63.79,102.43,79.35,26.88,9.84,54.78,12.07,83.17,10.11,26.13-1.8,51.78-5.89,76.5-14.91,49.4-18,85.7-50.92,110.44-97,.61-1.15,1.16-2.34,1.69-3.53a8.13,8.13,0,0,0,.13-1.74H656.24c0-4.86-.33-9.12.2-13.26.16-1.31,2.6-3.34,4-3.35,18.48-.23,37-.26,55.44,0,1.52,0,4.25,2.84,4.29,4.4.27,12.88,1.68,11.21-9.87,11.4-4.11.07-8.24.38-12.32.07-4.89-.37-7.29,1.84-9.27,6.15-19.33,42.11-49.15,74.47-90.47,95.77-28.62,14.76-59.14,23.21-91.16,26.48-40.14,4.1-79.79,1.74-118.19-11-63.11-21-112.5-60.54-150.09-114.92-27.86-40.3-46.55-84.86-52.89-133.36C169.42,423.53,207,318.07,310.53,240.09c37.63-28.35,80.88-44.3,127.82-49.29,75.73-8.05,142.74,12.49,200.2,62.75C655.08,268,668.42,285.33,680,304c1,1.59,2,3.14,3,4.68C683.22,309,683.63,309.09,684.37,309.59Z"/><path class="cls-1" d="M722.69,319.83h61.79v8.58c-5.48,0-10.67,0-15.85,0a17.57,17.57,0,0,0-14.91,7Q694.78,406.85,635.42,478c-1.15,1.39-2.1,2.95-3.08,4.33,8.58-.5,16.86-1.47,25.13-1.38,28.14.28,48.83,13,61.43,38.26,17.72,35.51,35.23,71.13,52.8,106.71,6.19,12.52,12.88,24.84,18.29,37.7,3.45,8.2,9.89,7.08,16.18,7.62a19,19,0,0,0,3.33-.36c8.26-.73,8.89-.07,8,8.75h-83V670.8h28.29c-5.84-11.84-11.13-22.64-16.5-33.39-17.81-35.65-35.5-71.38-53.61-106.89a258.52,258.52,0,0,0-17.06-28.21c-10.45-15.28-29-18.15-47.34-8.19-9.78,5.32-15.06,11.64-14.8,24.39,1,48.34.49,96.7.28,145.06,0,5.7,1.73,7.69,7.34,7.3s11.16-.09,17.21-.09v8.82h-83v-8.52h24V328.47h-24V320h82.75v8.39c-5.35,0-10.88,0-16.41,0-7.21,0-7.81.61-7.81,7.52q0,72.81,0,145.62c0,1.77.19,3.54.38,7l132.23-160H722.69Z"/><path class="cls-1" d="M332,476.87c1.38-11.22,2.53-21.16,3.85-31.08q4.8-36,9.71-72c1.82-13.47,3.73-26.93,5.35-40.42.43-3.58,1.93-4.74,5.37-4.74q83.45.09,166.88.18c1.41,0,4,1.87,4,2.9.26,16.57.19,33.14.19,49.58-8.79,1.79-9.22,1.45-9.23-6.78a84.49,84.49,0,0,1,.09-10.07c.69-5.71-2-7-7.13-7-50,.11-100,0-150.08.08-7.15,0-8.22,1.25-9.17,8.28-3.55,26.38-7.25,52.74-10.84,79.11-.84,6.22-1.46,12.47-2.3,19.78,2.68-1,4.54-1.49,6.32-2.25,28.2-12.07,57.59-18,88.26-16,31.94,2,61.54,11.08,86.7,31.74,20.21,16.59,31.19,38.57,36.2,63.85,5.74,29,4.64,57.33-9.74,83.75-18.84,34.62-48.45,55.07-87,61.91-41.82,7.42-80.74-.76-116.39-24-1.09-.71-2.26-1.28-2.47-1.4L328.81,665v-38.1h7.67c.23.29.68.61.65.86-1.6,11.4,5.4,18.11,12.93,24.95,22.29,20.27,48,32.78,78.29,34.16,31.28,1.43,55.26-12.5,73.69-37.09,21.48-28.66,28-60.79,24.26-96.07-5.58-52.38-47.26-91.42-100.58-96.87-30.74-3.13-59.16,3.6-86.53,16.82C337.23,474.56,335.21,475.41,332,476.87Z"/></svg>